<?xml version="1.0" encoding="utf-8"?>
<!-- Generator: Adobe Illustrator 19.2.1, SVG Export Plug-In . SVG Version: 6.00 Build 0)  -->
<svg version="1.1" id="layer" xmlns="http://www.w3.org/2000/svg" xmlns:xlink="http://www.w3.org/1999/xlink" x="0px" y="0px"
	 viewBox="0 0 652 652" style="enable-background:new 0 0 652 652;" xml:space="preserve">
<style type="text/css">
	.st0{fill:#1B3767;}
</style>
<path class="st0" d="M76.3,280.5c-3.9,18.4-7.3,36.9-11.1,60.8c-1.8,11.2-6.2,19.6-25,19.6c-6.6,0-13.1-0.6-19.5-1.7L22,340
	c2.2,0.7,4.4,1.2,6.7,1.2c6.5,0,9.4-2.8,11.2-9.2c3-10.6,5.7-27,9.6-51.6H76.3z M79.9,260.8c-0.8,3.5-2.1,9-3.2,14.8H51.2
	c1.1-5,1.9-9.9,2.7-14.8H79.9z"/>
<path class="st0" d="M117.7,298.7c-0.8,6-3.8,18.2-12.1,18.2c-4.1,0-5.4-3.9-4.8-7.6c1-6.5,6.6-11.2,13.1-11.2
	C115.1,298.1,116.4,298.4,117.7,298.7 M135.9,335c3.9-20.5,7.9-40.6,11.1-52.7c-9.4-1.9-18.8-3.3-30.8-3.3
	c-22.6,0-38.5,12.8-41.5,31.9c-2.1,13.4,4.8,24.5,18.9,24.5c6,0,11.9-2.1,17.5-5.4c-0.3,1.9-0.7,3.5-1.2,5L135.9,335z"/>
<path class="st0" d="M187.8,334.3c-5.9,1.4-11.9,2.2-17.7,2.2c-25.1,0-26.2-17.3-24.6-27.4c2.8-17.9,13.9-30,36.3-30
	c6.1,0,12.1,0.7,17.8,2.1l-1.9,19.8c-4-1.5-8.3-2.7-13-2.7c-6.6,0-11.5,3.2-12.5,10c-1,6.2,2.1,9.3,8.3,9.3c4.2,0,9.4-1.3,13.6-2.9
	L187.8,334.3z"/>
<path class="st0" d="M194.8,335c6.5-24.1,11.1-48.4,15-72.8h26.4c-5.9,24.3-11.2,48.5-14.9,72.8H194.8z M246,280.5h28.8l-20,24
	l10.3,30.5h-28.2l-8.4-30.8L246,280.5z"/>
<path class="st0" d="M330.4,262.2c-2.1,8.2-4.2,16.3-5.5,24c3.3-2.7,10.3-7.2,21-7.2c15.1,0,19.1,7.1,17.7,16
	c-0.7,4.4-5.3,23.6-8,40H329c1.8-8.2,4-16.4,5.3-24.6c0.6-3.9,1.7-10.7-3.6-10.7c-5.4,0-8.4,5.8-10,10.2c-3,8.3-4.2,16.8-6.1,25.1
	h-27.1c5.9-22.6,10.9-43.7,15.6-72.8H330.4z"/>
<path class="st0" d="M391.4,301.7c1-3.8,3.3-7.8,7.8-7.8c3.7,0,5,2.5,4.5,5.9l-0.3,2H391.4z M425.6,311.7c1-2.8,1.8-5.6,2.2-8.3
	c2.9-18.1-9.9-24.3-26.1-24.3c-29.2,0-36.5,21.5-37.9,30.9c-4.2,26.6,21.7,26.6,30.4,26.6c6.8,0,13.6-0.8,20.5-2l6.1-18.7
	c-6.5,1.8-14,3.6-20.6,3.6c-5.5,0-12-0.8-10.9-7.8H425.6z"/>
<path class="st0" d="M461,286.2c3.3-2.7,10.3-7.2,21-7.2c15.1,0,19.1,7.1,17.7,16.1c-0.7,4.4-5.3,23.5-8,39.9h-26.7
	c1.8-8.2,4-16.3,5.3-24.5c0.6-3.9,1.7-10.7-3.6-10.7c-5.4,0-8.4,5.8-10,10.1c-3,8.3-4.2,16.8-6.1,25.1h-27.1
	c5.4-18.1,8.9-36.3,12.3-54.5h26.4L461,286.2z"/>
<path class="st0" d="M529.8,285.4c4.4-3.6,8.5-6.3,14.1-6.3c1.4,0,2.7,0.2,4,0.5l-2.7,21.8c-1.7-0.5-3.5-0.9-5.4-0.9
	c-6,0-10.8,2.8-13.4,8.6c-2.1,4.4-3.6,13.2-4.4,18c-0.4,2.6-0.7,5.3-0.9,8h-26.5c3.6-14.4,6.6-27.3,10.9-54.5h25.1L529.8,285.4z"/>
<path class="st0" d="M577.8,280.5h-26.1l9.4,55.4c-1.5,5.6-6.4,7.6-11.1,7.6c-3.9,0-7.6-1.2-10.7-3.3l-0.3,18.9
	c4.8,1.1,9.7,1.7,14.8,1.7c10.2,0,20.9-2.1,29.4-16.5l37.6-64h-25.4l-15.9,33.3L577.8,280.5z"/>
<path class="st0" d="M96.8,357.8c-1.7-2.4-3.6-5.4-3.6-8.5c0-3,1.5-5.6,4.9-5.6c2.7,0,4.6,2.2,4.6,5
	C102.7,352.8,99.9,355.5,96.8,357.8 M109.1,373.4c2.8-3.4,5.3-7,7.7-10.8c-0.8-0.6-1.7-1.6-2.2-2.4c-1.9,3.7-4.5,8.2-6.8,11.7
	l-3-3.5c-2.5-3-4.7-6.1-7-9.2c3.7-2.5,7.8-5.7,7.8-10.7c0-3.9-3.3-6.2-7.5-6.2c-5.1,0-8.8,3.4-8.8,8.7c0,3.5,2,6.4,3.8,9.2l-0.3,0.2
	c-5.4,2.8-10,6.7-10,12.5c0,6.1,4.6,9.9,10.9,9.9c4.8,0,9.1-2.1,12.3-5.7c1.3,1.6,2.5,3.2,3.6,5c1.1-0.1,2.2-0.2,3.3-0.2
	c1.1,0,2.3,0.1,3.5,0.2L109.1,373.4z M94,361.5c3.4,4.9,7.1,9.5,10.7,14.1c-0.7,0.7-4.5,4.4-9,4.4c-4.7,0-8.4-3.7-8.4-8.6
	c0-4.5,2.8-7.3,6.2-9.6C93.7,361.7,93.9,361.6,94,361.5"/>
<path class="st0" d="M152.2,363.5h-12.6l6.2-15.1L152.2,363.5z M147.9,340.6h-1.3L128.8,382c0.6-0.1,1.3-0.2,2-0.2
	c0.7,0,1.3,0.1,2.1,0.2c1.6-5.6,3.7-10.8,5.7-16H153c2.3,5.4,4.3,11,6,16c1-0.1,1.9-0.2,3-0.2c1,0,1.9,0.1,3,0.2L147.9,340.6z"/>
<path class="st0" d="M167.9,374c2.2,3.8,4.8,6.1,9.3,6.1c4.6,0,7.9-4,7.9-8.6c0-11-17.9-6.1-17.9-19.5c0-7.6,5.8-11.3,12.7-11.3
	c2.7,0,6.1,0.9,8.2,2.8c-0.7,1.5-1.1,3.2-1.5,4.9h-0.6c-1.2-3.2-3.7-5.2-7.1-5.2c-3.9,0-7.2,2.7-7.2,6.9c0,10.9,18,6.5,18,19.1
	c0,8.4-6.3,13.5-14.1,13.5c-2.8,0-7.4-1.2-9.3-3.4c0.6-1.7,0.9-3.5,1.1-5.3H167.9z"/>
<path class="st0" d="M193,374c2.2,3.8,4.8,6.1,9.3,6.1c4.6,0,7.9-4,7.9-8.6c0-11-17.9-6.1-17.9-19.5c0-7.6,5.8-11.3,12.7-11.3
	c2.7,0,6.1,0.9,8.2,2.8c-0.7,1.5-1.1,3.2-1.5,4.9h-0.6c-1.2-3.2-3.7-5.2-7.1-5.2c-3.9,0-7.2,2.7-7.2,6.9c0,10.9,18,6.5,18,19.1
	c0,8.4-6.3,13.5-14.1,13.5c-2.8,0-7.4-1.2-9.3-3.4c0.6-1.7,0.9-3.5,1.1-5.3H193z"/>
<path class="st0" d="M254.6,361.3c0.4,6.5-3.9,19.4-16,19.4c-8.5,0-15.6-6.3-15.6-18.3c0-12,6.1-19.9,16.1-19.9c4.6,0,9,2,11.9,5.7
	C254,352.3,254.6,356.4,254.6,361.3 M238.5,382.7c12.7,0,21.8-8.6,21.8-21.8c0-14.2-10.9-20.2-21.6-20.2c-11.8,0-21.1,8.2-21.1,21.1
	C217.4,374.4,225.8,382.7,238.5,382.7"/>
<path class="st0" d="M295.2,379.3c-3.6,2.5-8.3,3.4-12.6,3.4c-12.6,0-20.1-8.2-20.1-21.1c0-13.3,9.5-20.9,21.5-20.9
	c4.2,0,8.5,1,12.3,2.7c-0.6,1.5-0.9,3-1.2,4.5l-0.4,0.1c-0.8-1.1-5-5.1-10.9-5.1c-10.5,0-15.7,8.8-15.7,18.9
	c0,11.3,6.3,18.6,15.3,18.6c6.2,0,11-3.8,12.1-4.8L295.2,379.3z"/>
<path class="st0" d="M300.4,341.5c0.8,0.1,1.7,0.2,2.5,0.2c0.8,0,1.6-0.1,2.5-0.2V382c-0.9-0.1-1.7-0.2-2.5-0.2
	c-0.9,0-1.7,0.1-2.5,0.2V341.5z"/>
<path class="st0" d="M332.9,363.5h-12.6l6.2-15.1L332.9,363.5z M328.6,340.6h-1.3L309.5,382c0.6-0.1,1.3-0.2,2-0.2
	c0.7,0,1.3,0.1,2.1,0.2c1.6-5.6,3.7-10.8,5.7-16h14.5c2.3,5.4,4.3,11,6,16c1-0.1,1.9-0.2,3-0.2c1,0,1.9,0.1,3,0.2L328.6,340.6z"/>
<path class="st0" d="M356.5,382.1c-0.9-0.1-1.7-0.2-2.5-0.2c-0.9,0-1.7,0.1-2.5,0.2v-37.7c-5.8,0-9.3,0.3-12.5,0.7
	c0.1-0.6,0.2-1.2,0.2-1.8c0-0.6-0.1-1.1-0.2-1.8h29.5c-0.1,0.6-0.2,1.2-0.2,1.8c0,0.6,0.1,1.2,0.2,1.8c-2.9-0.4-6.9-0.7-11.9-0.7
	V382.1z"/>
<path class="st0" d="M376.3,359.1h8.8c1.7,0,3.4-0.2,5.1-0.3c-0.1,0.5-0.2,1-0.2,1.5c0,0.5,0.1,1,0.2,1.6c-1.7-0.1-3.4-0.3-5.1-0.3
	h-8.8V379c3.5,0.1,6.9-0.1,10.3-0.2c1.8-0.1,3.5-0.2,5.2-0.5c-0.1,0.6-0.2,1.2-0.2,1.8c0,0.6,0.1,1.2,0.2,1.8h-20.6v-40.3h20.3
	c-0.1,0.7-0.2,1.2-0.2,1.8c0,0.6,0.1,1.2,0.2,1.8c-1.7-0.4-3.4-0.5-5.1-0.7l-5.7-0.1h-4.4V359.1z"/>
<path class="st0" d="M395.5,374c2.2,3.8,4.8,6.1,9.3,6.1c4.6,0,7.9-4,7.9-8.6c0-11-17.9-6.1-17.9-19.5c0-7.6,5.8-11.3,12.7-11.3
	c2.7,0,6.1,0.9,8.2,2.8c-0.7,1.5-1.1,3.2-1.5,4.9h-0.6c-1.2-3.2-3.7-5.2-7.1-5.2c-3.9,0-7.2,2.7-7.2,6.9c0,10.9,18,6.5,18,19.1
	c0,8.4-6.3,13.5-14.1,13.5c-2.8,0-7.4-1.2-9.3-3.4c0.6-1.7,0.9-3.5,1.1-5.3H395.5z"/>
<path class="st0" d="M434.3,341.5c0.8,0.1,1.7,0.2,2.5,0.2c0.8,0,1.6-0.1,2.5-0.2V382c-0.9-0.1-1.7-0.2-2.5-0.2
	c-0.9,0-1.7,0.1-2.5,0.2V341.5z"/>
<path class="st0" d="M479,382h-1.7c-0.6-0.8-1.8-2.2-3-3.6l-24.7-28.2h-0.6V382c-0.6-0.1-1.1-0.2-1.6-0.2c-0.6,0-1.1,0.1-1.6,0.2
	v-40.4h2.2l27.1,30.4h0.6v-30.4c0.5,0.1,1,0.2,1.6,0.2c0.5,0,1-0.1,1.6-0.2V382z"/>
<path class="st0" d="M516.1,379.3c-3.6,2.5-8.3,3.4-12.6,3.4c-12.6,0-20.1-8.2-20.1-21.1c0-13.3,9.5-20.9,21.5-20.9
	c4.2,0,8.4,1,12.3,2.7c-0.6,1.5-0.9,3-1.2,4.5l-0.4,0.1c-0.8-1.1-5-5.1-10.9-5.1c-10.5,0-15.7,8.8-15.7,18.9
	c0,11.3,6.3,18.6,15.3,18.6c6.2,0,11-3.8,12.1-4.8L516.1,379.3z"/>
<path class="st0" d="M522.7,375.3c1.8,0,3.4,1.6,3.4,3.5c0,2-1.5,3.5-3.4,3.5c-1.9,0-3.5-1.6-3.5-3.5
	C519.2,376.9,520.9,375.3,522.7,375.3"/>
<path class="st0" d="M611.2,345.5c0,1.6-0.4,3.1-1.2,4.4c-0.8,1.4-1.9,2.5-3.3,3.2c-1.4,0.8-2.9,1.2-4.5,1.2c-1.6,0-3.1-0.4-4.5-1.2
	c-1.4-0.8-2.5-1.9-3.3-3.2c-0.8-1.4-1.2-2.9-1.2-4.4c0-1.6,0.4-3.1,1.2-4.4c0.8-1.4,1.9-2.5,3.3-3.3c1.4-0.8,2.9-1.2,4.5-1.2
	c1.6,0,3.1,0.4,4.5,1.2c1.4,0.8,2.5,1.9,3.3,3.3C610.9,342.5,611.2,344,611.2,345.5 M609.5,345.5c0-2-0.7-3.7-2.1-5.1
	c-1.4-1.4-3.1-2.1-5.1-2.1s-3.7,0.7-5.1,2.1c-1.4,1.4-2.1,3.1-2.1,5.1c0,2,0.7,3.7,2.1,5.1c1.4,1.4,3.1,2.1,5.1,2.1s3.7-0.7,5.1-2.1
	C608.8,349.2,609.5,347.5,609.5,345.5 M598.3,340.8h4.3c1.2,0,2.1,0.2,2.6,0.7c0.5,0.5,0.8,1.1,0.8,1.9c0,0.6-0.2,1.2-0.6,1.7
	c-0.4,0.5-1.1,0.8-1.9,1c0.4,0.1,0.6,0.3,0.8,0.4c0.2,0.2,0.5,0.5,0.8,1c0,0,0.5,0.9,1.5,2.7h-2.8c-0.9-1.8-1.5-2.9-1.8-3.2
	c-0.3-0.4-0.6-0.5-0.9-0.5c-0.1,0-0.2,0-0.3,0v3.7h-2.4V340.8z M600.6,344.8h1c0.7,0,1.2-0.1,1.4-0.3c0.3-0.2,0.4-0.5,0.4-0.9
	c0-0.3-0.1-0.6-0.4-0.9c-0.3-0.2-0.7-0.3-1.4-0.3h-1.1V344.8z"/>
</svg>
