<?xml version="1.0" encoding="UTF-8"?>
<svg xmlns="http://www.w3.org/2000/svg" xmlns:xlink="http://www.w3.org/1999/xlink" width="307.43pt" height="222.23pt" viewBox="0 0 307.43 222.23" version="1.1">
<defs>
<clipPath id="clip1">
  <path d="M 2 0 L 307.429688 0 L 307.429688 130 L 2 130 Z M 2 0 "/>
</clipPath>
<clipPath id="clip2">
  <path d="M 0 84 L 267 84 L 267 222.230469 L 0 222.230469 Z M 0 84 "/>
</clipPath>
</defs>
<g id="surface1">
<path style=" stroke:none;fill-rule:nonzero;fill:rgb(27.799988%,19.599915%,50.59967%);fill-opacity:1;" d="M 97.746094 110.164063 L 97.738281 110.167969 C 97.738281 110.167969 97.734375 110.167969 97.734375 110.171875 C 97.738281 110.167969 97.742188 110.164063 97.746094 110.164063 "/>
<g clip-path="url(#clip1)" clip-rule="nonzero">
<path style=" stroke:none;fill-rule:nonzero;fill:rgb(27.799988%,19.599915%,50.59967%);fill-opacity:1;" d="M 258.574219 0.0078125 L 206.445313 0.0078125 C 206.445313 0.0078125 203.058594 8.742188 202.324219 10.625 C 202.3125 9.546875 202.183594 0.0078125 202.183594 0.0078125 L 151.257813 0.0078125 L 38.101563 0.00390625 L 35.804688 5.570313 L 7.574219 73.929688 C -0.382813 93.121094 0.421875 110.097656 9.785156 120.5 C 18.136719 129.773438 32.09375 132.378906 48.074219 127.640625 C 67.832031 121.78125 73.804688 119.910156 87.152344 114.945313 C 90.691406 113.628906 94.71875 112.03125 97.734375 110.171875 C 97.734375 110.171875 97.730469 110.171875 97.726563 110.175781 L 97.738281 110.167969 C 98.023438 109.992188 98.289063 109.792969 98.566406 109.609375 L 123.121094 104.753906 C 123.121094 104.753906 159.734375 96.820313 188.605469 93.976563 C 198.914063 92.960938 212.878906 92.863281 212.878906 92.863281 C 212.878906 92.863281 229.03125 92.464844 244.460938 94.277344 C 255.675781 95.589844 261.804688 96.835938 261.863281 96.847656 L 269.230469 98.261719 L 271.953125 91.269531 L 307.433594 0.0117188 L 258.574219 0.0078125 "/>
</g>
<path style=" stroke:none;fill-rule:nonzero;fill:rgb(99.198914%,72.499084%,15.299988%);fill-opacity:1;" d="M 40.425781 7.742188 L 12.195313 76.101563 C 5.003906 93.445313 5.480469 108.503906 13.5 117.417969 C 20.613281 125.316406 32.386719 127.339844 46.652344 123.109375 C 66.28125 117.292969 72.210938 115.433594 85.40625 110.523438 C 88.722656 109.292969 92.46875 107.8125 95.109375 106.179688 C 105.210938 99.964844 110.949219 85.917969 116.503906 72.335938 L 143.820313 5.273438 L 97.457031 5.269531 L 69.207031 74.210938 C 66.535156 80.703125 63.617188 86.5625 57.332031 86.914063 C 56.261719 86.972656 55.730469 86.859375 55.492188 86.785156 C 55.46875 86.6875 55.441406 86.601563 55.441406 86.382813 C 55.441406 85.539063 55.753906 83.675781 57.398438 79.6875 C 57.398438 79.683594 87.96875 5.273438 87.96875 5.273438 L 41.449219 5.269531 Z M 95.109375 106.179688 L 95.117188 106.175781 C 95.113281 106.175781 95.113281 106.175781 95.109375 106.179688 "/>
<path style=" stroke:none;fill-rule:nonzero;fill:rgb(99.198914%,72.499084%,15.299988%);fill-opacity:1;" d="M 193.304688 5.273438 L 146.585938 5.273438 L 105.957031 103.3125 L 122.148438 100.109375 L 128.242188 98.898438 C 128.800781 98.789063 129.355469 98.671875 129.894531 98.542969 C 129.90625 98.539063 130.84375 98.367188 130.84375 98.367188 L 130.84375 98.355469 C 134.132813 97.722656 151.113281 94.449219 151.113281 94.449219 L 151.914063 92.375 C 154.480469 85.703125 157.570313 78.34375 160.648438 71.082031 C 160.664063 75.546875 160.722656 80.003906 160.789063 84.390625 L 160.921875 92.480469 L 165.363281 91.90625 C 165.519531 91.886719 181.1875 89.851563 188.183594 89.257813 C 201.957031 88.097656 214.660156 88.269531 214.785156 88.273438 L 217.523438 88.316406 L 251.15625 5.273438 L 209.867188 5.273438 L 201.5625 26.664063 C 200.285156 29.96875 198.972656 33.351563 197.667969 36.714844 C 197.527344 26.347656 197.25 5.273438 197.25 5.273438 L 193.304688 5.273438 "/>
<path style=" stroke:none;fill-rule:nonzero;fill:rgb(99.198914%,72.499084%,15.299988%);fill-opacity:1;" d="M 252.546875 7.777344 L 219.964844 88.640625 L 225.925781 88.609375 C 226.03125 88.605469 236.851563 88.558594 245.074219 89.578125 C 256.488281 90.996094 262.746094 92.191406 262.808594 92.199219 L 266.085938 92.832031 L 300.125 5.273438 L 253.554688 5.273438 L 252.546875 7.777344 "/>
<path style=" stroke:none;fill-rule:nonzero;fill:rgb(27.799988%,19.599915%,50.59967%);fill-opacity:1;" d="M 93.015625 102.511719 C 90.582031 104.015625 86.722656 105.503906 84.015625 106.507813 C 70.855469 111.402344 65.003906 113.234375 45.515625 119.011719 C 17.441406 127.335938 2.917969 108.65625 15.894531 77.367188 L 44.121094 9.003906 L 82.003906 9.007813 L 53.699219 77.898438 C 51.089844 84.234375 49.132813 91.113281 57.554688 90.644531 C 66.578125 90.140625 70.339844 81.714844 72.90625 75.464844 L 100.140625 9.007813 L 137.871094 9.007813 L 113.15625 69.6875 C 107.625 83.210938 102.195313 96.859375 93.015625 102.511719 "/>
<path style=" stroke:none;fill-rule:nonzero;fill:rgb(27.799988%,19.599915%,50.59967%);fill-opacity:1;" d="M 187.847656 85.011719 C 180.679688 85.617188 164.847656 87.675781 164.847656 87.675781 C 164.660156 75.355469 164.328125 62.183594 165.21875 49.554688 C 160.027344 62.367188 153.171875 77.703125 148.179688 90.675781 C 148.179688 90.675781 122.179688 95.675781 129.179688 94.34375 C 135.296875 93.179688 112.515625 97.675781 112.515625 97.675781 L 149.257813 9.007813 L 193.304688 9.007813 L 193.769531 44.21875 C 193.816406 49.203125 193.511719 54.324219 192.90625 59.464844 C 199.730469 42.527344 206.085938 25.628906 212.605469 9.007813 L 245.222656 9.007813 L 214.847656 84.011719 C 214.847656 84.011719 201.996094 83.816406 187.847656 85.011719 "/>
<path style=" stroke:none;fill-rule:nonzero;fill:rgb(27.799988%,19.599915%,50.59967%);fill-opacity:1;" d="M 245.566406 85.34375 C 236.980469 84.28125 225.898438 84.34375 225.898438 84.34375 L 256.257813 9.007813 L 294.277344 9.011719 L 263.566406 88.011719 C 263.566406 88.011719 257.285156 86.800781 245.566406 85.34375 "/>
<path style=" stroke:none;fill-rule:nonzero;fill:rgb(27.799988%,19.599915%,50.59967%);fill-opacity:1;" d="M 280.226563 85.574219 C 282.203125 85.574219 283.8125 87.183594 283.8125 89.164063 C 283.8125 91.144531 282.203125 92.753906 280.226563 92.753906 C 278.242188 92.753906 276.636719 91.144531 276.636719 89.164063 C 276.636719 87.183594 278.242188 85.574219 280.226563 85.574219 Z M 280.226563 92.015625 C 281.765625 92.015625 282.976563 90.734375 282.976563 89.164063 C 282.976563 87.59375 281.765625 86.3125 280.226563 86.3125 C 278.683594 86.3125 277.476563 87.59375 277.476563 89.164063 C 277.476563 90.734375 278.683594 92.015625 280.226563 92.015625 Z M 280.015625 89.554688 L 279.59375 89.554688 L 279.59375 91.183594 L 278.8125 91.183594 L 278.8125 87.09375 L 280.253906 87.09375 C 281.453125 87.09375 281.886719 87.414063 281.886719 88.3125 C 281.886719 89.015625 281.503906 89.425781 280.835938 89.523438 L 281.925781 91.183594 L 281.046875 91.183594 Z M 279.59375 88.894531 L 280.375 88.894531 C 280.8125 88.894531 281.105469 88.792969 281.105469 88.285156 C 281.105469 87.84375 280.835938 87.753906 280.355469 87.753906 L 279.59375 87.753906 L 279.59375 88.894531 "/>
<g clip-path="url(#clip2)" clip-rule="nonzero">
<path style=" stroke:none;fill-rule:evenodd;fill:rgb(27.799988%,19.599915%,50.59967%);fill-opacity:1;" d="M 110.894531 105.773438 C 82.28125 112.417969 53.792969 120.324219 0 135.039063 L 75.195313 142.070313 L 49.957031 149.875 C 111.015625 156.613281 123.679688 166.535156 129.800781 172.65625 C 136.332031 179.6875 146.628906 185.195313 152.179688 188.140625 C 152.316406 188.210938 164.183594 217.667969 183.589844 221.65625 C 195.066406 224.015625 208.65625 219.96875 214.382813 209.742188 C 215.746094 207.292969 216.335938 205.761719 216.960938 203.023438 C 219.804688 201.542969 221.289063 199.972656 222.605469 197.050781 C 224.300781 193.308594 224.273438 190.230469 222.519531 186.507813 L 219.222656 189.257813 C 219.503906 185.253906 220.359375 182.84375 222.683594 179.570313 C 225.683594 175.339844 228.644531 173.328125 233.683594 172.09375 C 233.59375 173.722656 233.433594 174.648438 232.988281 176.21875 C 232.371094 178.382813 231.820313 179.585938 230.578125 181.46875 C 234.597656 180.679688 236.871094 179.769531 240.320313 177.574219 C 244.074219 175.179688 246.003906 173.300781 248.503906 169.621094 C 257.394531 169.789063 264.605469 163.691406 265.914063 154.890625 C 266.769531 149.15625 265.480469 144.945313 261.558594 140.671875 C 263.644531 138.542969 264.75 137.613281 264.960938 133.828125 C 264.976563 133.539063 254.003906 120.867188 253.101563 119.636719 L 258.722656 107.519531 C 239.816406 97.339844 215.996094 81.269531 172.210938 84.90625 C 150.816406 86.679688 134.21875 89.761719 95.398438 98.234375 L 110.894531 105.773438 "/>
</g>
<path style=" stroke:none;fill-rule:evenodd;fill:rgb(99.198914%,72.499084%,15.299988%);fill-opacity:1;" d="M 168.109375 205.636719 C 173.132813 211.480469 183.535156 216.863281 193.695313 215.640625 C 201.160156 214.742188 205.742188 212.445313 210.9375 207.003906 C 203.878906 209.25 198.285156 208.457031 192.132813 204.339844 C 186.269531 200.425781 184.296875 195.832031 182.589844 188.996094 C 181.253906 183.679688 183.070313 181.355469 179.859375 176.917969 C 176.453125 172.210938 165.738281 169.734375 160.359375 171.917969 C 168.449219 165.933594 182.144531 162.484375 192.121094 161.148438 C 199.277344 160.191406 214.265625 160.425781 222.339844 163.824219 C 235.601563 169.402344 252.445313 160.476563 249.675781 148.597656 C 247.476563 139.179688 236.566406 133.570313 227.628906 137.25 L 227.894531 133.085938 C 233.015625 131.136719 236.070313 130.335938 241.488281 129.523438 C 246.894531 128.707031 250.042969 128.574219 255.496094 128.921875 C 253.152344 125.023438 251.375 122.984375 247.832031 120.125 C 242.9375 116.167969 239.382813 114.511719 233.203125 113.292969 L 242.734375 112.144531 L 246.628906 106.835938 C 221.800781 94.5 205.898438 86.105469 173.296875 88.6875 C 148.96875 90.609375 144.265625 92.699219 111.675781 99.003906 L 127.546875 107.066406 C 89.898438 114.726563 63.507813 122.425781 24.910156 132.226563 L 92.964844 138.042969 L 70.800781 147.300781 C 119.164063 153.53125 131.519531 167.277344 132.738281 168.753906 C 141.511719 179.320313 156.386719 185.082031 156.386719 185.082031 C 159.839844 194.796875 163.691406 200.5 168.109375 205.636719 "/>
<path style=" stroke:none;fill-rule:evenodd;fill:rgb(27.799988%,19.599915%,50.59967%);fill-opacity:1;" d="M 152.558594 153.144531 C 162.347656 149.445313 168.03125 147.671875 178.167969 145.164063 C 191.15625 141.949219 198.675781 140.6875 211.828125 139.519531 C 199.9375 141.726563 193.203125 143.523438 181.734375 147.578125 C 175.015625 149.949219 171.269531 151.46875 164.8125 154.433594 L 164.179688 159.117188 L 152.558594 153.144531 "/>
<path style=" stroke:none;fill-rule:evenodd;fill:rgb(27.799988%,19.599915%,50.59967%);fill-opacity:1;" d="M 134.183594 145.585938 C 147.871094 142.03125 155.730469 140.4375 169.632813 138.402344 C 188.773438 135.601563 199.730469 134.839844 218.703125 134.992188 C 200.472656 136.0625 190.015625 137.492188 171.894531 141.398438 C 162.953125 143.324219 157.921875 144.609375 149.121094 147.199219 L 148.503906 151.597656 L 134.183594 145.585938 "/>
<path style=" stroke:none;fill-rule:evenodd;fill:rgb(27.799988%,19.599915%,50.59967%);fill-opacity:1;" d="M 221.683594 131.117188 C 197.019531 127.621094 182.152344 127.363281 156.417969 129.992188 C 139.6875 131.695313 130.140625 133.40625 113.664063 137.636719 L 130.804688 143.257813 L 129.707031 139.257813 C 144.253906 136.285156 152.550781 134.984375 167.1875 133.371094 C 188.511719 131.027344 200.640625 130.527344 221.683594 131.117188 "/>
<path style=" stroke:none;fill-rule:evenodd;fill:rgb(100%,100%,100%);fill-opacity:1;" d="M 196.191406 193.148438 C 198.207031 192.574219 199.347656 192.074219 201.105469 190.980469 C 203.855469 189.265625 205.261719 187.855469 206.746094 185.289063 C 207.320313 187.378906 207.296875 188.746094 206.644531 190.957031 C 205.699219 194.171875 204.238281 196.148438 201.144531 198.382813 C 199.160156 198.960938 197.445313 198.570313 196.316406 197.277344 C 195.246094 196.046875 195.203125 194.640625 196.191406 193.148438 "/>
<path style=" stroke:none;fill-rule:evenodd;fill:rgb(100%,100%,100%);fill-opacity:1;" d="M 210.277344 196.03125 C 212.378906 195.539063 213.570313 195.078125 215.433594 194.023438 C 217.519531 192.851563 218.613281 191.96875 220.113281 190.269531 C 221.226563 193.148438 220.710938 195.632813 218.429688 198.375 C 216.402344 200.816406 214.238281 202.035156 210.914063 202.605469 C 209.679688 201.832031 209.152344 201.023438 208.996094 199.664063 C 208.839844 198.261719 209.195313 197.25 210.277344 196.03125 "/>
<path style=" stroke:none;fill-rule:evenodd;fill:rgb(99.198914%,72.499084%,15.299988%);fill-opacity:1;" d="M 256.8125 146.75 L 252.226563 152.359375 C 252.855469 154.210938 252.949219 155.4375 252.597656 157.359375 C 252.148438 159.816406 251.332031 161.277344 249.480469 162.953125 C 254.515625 162.875 258.472656 159.320313 259.085938 154.324219 C 259.464844 151.265625 258.8125 149.097656 256.8125 146.75 "/>
<path style=" stroke:none;fill-rule:evenodd;fill:rgb(100%,100%,100%);fill-opacity:1;" d="M 214.410156 169.730469 C 215.839844 173.0625 215.613281 174.816406 215.613281 174.816406 C 215.613281 174.816406 224.148438 168.25 222.164063 166.757813 C 220.140625 165.230469 214.4375 164.1875 208.984375 164.199219 C 206.863281 164.203125 212.984375 166.386719 214.410156 169.730469 "/>
<path style=" stroke:none;fill-rule:evenodd;fill:rgb(100%,100%,100%);fill-opacity:1;" d="M 153.265625 100.65625 C 167.550781 97.953125 186.164063 96.394531 199.578125 101.078125 C 209.277344 104.464844 213.988281 107.167969 222.015625 112.964844 L 196.988281 114.707031 C 188.425781 109.210938 181.285156 105.605469 175.902344 103.703125 C 169.722656 101.511719 165.25 100.65625 153.265625 100.65625 "/>
<path style=" stroke:none;fill-rule:evenodd;fill:rgb(27.799988%,19.599915%,50.59967%);fill-opacity:1;" d="M 179.078125 101.710938 C 189.179688 100.101563 198.492188 102.632813 202.109375 103.628906 C 209.464844 105.648438 216.261719 108.214844 224.214844 113.417969 L 197.121094 114.902344 C 194.582031 111.511719 192.902344 109.191406 190.585938 107.355469 C 187.171875 104.652344 183.277344 102.867188 179.078125 101.710938 "/>
</g>
</svg>
