<?xml version="1.0" encoding="UTF-8"?>
<svg xmlns="http://www.w3.org/2000/svg" xmlns:xlink="http://www.w3.org/1999/xlink" width="365pt" height="365pt" viewBox="0 0 365 365" version="1.1">
<g id="surface1">
<path style=" stroke:none;fill-rule:nonzero;fill:rgb(32.199097%,17.298889%,49.798584%);fill-opacity:1;" d="M 364.269531 182.503906 C 364.269531 282.886719 282.894531 364.269531 182.503906 364.269531 C 82.117188 364.269531 0.738281 282.886719 0.738281 182.503906 C 0.738281 82.117188 82.117188 0.738281 182.503906 0.738281 C 282.894531 0.738281 364.269531 82.117188 364.269531 182.503906 "/>
<path style=" stroke:none;fill-rule:nonzero;fill:rgb(32.199097%,17.298889%,49.798584%);fill-opacity:1;" d="M 54.492188 54.492188 C 21.730469 87.257813 1.46875 132.511719 1.46875 182.5 C 1.46875 232.496094 21.730469 277.75 54.492188 310.511719 C 87.257813 343.269531 132.507813 363.539063 182.5 363.539063 C 232.496094 363.539063 277.746094 343.269531 310.511719 310.511719 C 343.273438 277.75 363.535156 232.496094 363.535156 182.5 C 363.535156 132.511719 343.277344 87.257813 310.511719 54.492188 C 277.746094 21.730469 232.496094 1.46875 182.5 1.46875 C 132.507813 1.46875 87.257813 21.730469 54.492188 54.492188 Z M 0 182.5 C 0 81.710938 81.707031 0 182.5 0 C 283.296875 0 365 81.710938 365 182.5 C 365 283.289063 283.296875 365 182.5 365 C 81.707031 365 0 283.289063 0 182.5 "/>
<path style=" stroke:none;fill-rule:nonzero;fill:rgb(32.199097%,17.298889%,49.798584%);fill-opacity:1;" d="M 182.503906 314.425781 C 255.363281 314.425781 314.425781 255.363281 314.425781 182.503906 C 314.425781 109.644531 255.363281 50.574219 182.503906 50.574219 C 109.640625 50.574219 50.578125 109.644531 50.578125 182.503906 C 50.578125 255.363281 109.640625 314.425781 182.503906 314.425781 "/>
<path style=" stroke:none;fill-rule:nonzero;fill:rgb(92.89856%,70.199585%,11.799622%);fill-opacity:1;" d="M 48.378906 182.5 C 48.378906 108.425781 108.425781 48.375 182.503906 48.375 C 256.578125 48.375 316.625 108.425781 316.625 182.5 C 316.625 256.582031 256.578125 316.628906 182.503906 316.628906 L 182.503906 312.226563 C 218.332031 312.226563 250.753906 297.710938 274.230469 274.230469 C 297.714844 250.75 312.226563 218.335938 312.226563 182.5 C 312.226563 146.671875 297.714844 114.253906 274.230469 90.769531 C 250.753906 67.292969 218.332031 52.773438 182.503906 52.773438 C 146.671875 52.773438 114.25 67.292969 90.773438 90.769531 C 67.289063 114.253906 52.777344 146.671875 52.777344 182.5 C 52.777344 218.335938 67.289063 250.746094 90.773438 274.230469 C 114.25 297.710938 146.671875 312.226563 182.503906 312.226563 L 182.503906 316.628906 C 108.425781 316.625 48.378906 256.582031 48.378906 182.5 "/>
<path style=" stroke:none;fill-rule:nonzero;fill:rgb(92.89856%,70.199585%,11.799622%);fill-opacity:1;" d="M 170.703125 61.421875 C 174.371094 65.382813 172.90625 71.683594 177.742188 74.761719 C 179.203125 80.1875 179.792969 87.808594 176.273438 92.351563 C 171.878906 99.679688 163.230469 97.042969 156.925781 100.121094 L 157.363281 101.148438 L 195.328125 101.148438 C 197.679688 95.136719 203.539063 89.125 210.136719 87.808594 C 217.023438 86.929688 223.914063 88.6875 228.75 93.816406 C 231.828125 97.335938 231.539063 103.199219 230.507813 107.59375 C 226.113281 119.03125 213.949219 125.332031 203.097656 127.972656 L 201.636719 129.289063 L 199.800781 130.390625 L 244.289063 130.316406 L 244.585938 212.699219 C 238.867188 246.703125 213.359375 279.6875 181.988281 296.105469 C 146.371094 279.097656 121.011719 242.75 119.402344 203.609375 L 119.328125 130.757813 L 121.453125 130.460938 C 137.429688 130.902344 155.460938 130.902344 171.4375 130.460938 C 172.023438 130.023438 172.464844 129.144531 171.734375 128.703125 C 161.03125 123.574219 153.996094 109.648438 140.507813 111.410156 C 139.191406 108.183594 139.921875 104.957031 140.070313 101.878906 C 142.707031 100.855469 146.960938 102.90625 148.574219 100.121094 C 146.226563 94.402344 142.707031 86.929688 147.546875 81.210938 C 156.046875 75.496094 164.84375 67.726563 166.457031 57.613281 C 168.945313 57.171875 169.675781 59.957031 170.703125 61.421875 "/>
<path style=" stroke:none;fill-rule:nonzero;fill:rgb(32.199097%,17.298889%,49.798584%);fill-opacity:1;" d="M 171.4375 68.460938 C 172.023438 71.976563 173.195313 76.230469 171.726563 79.746094 C 165.570313 86.34375 155.3125 89.128906 151.648438 98.066406 C 149.449219 96.457031 148.863281 92.789063 148.128906 90.007813 C 147.691406 76.523438 166.15625 75.785156 167.917969 62.890625 C 170.117188 63.621094 170.558594 66.410156 171.4375 68.460938 "/>
<path style=" stroke:none;fill-rule:nonzero;fill:rgb(32.199097%,17.298889%,49.798584%);fill-opacity:1;" d="M 176.273438 79.015625 C 177.589844 83.703125 175.835938 87.953125 173.925781 91.769531 C 169.824219 96.894531 162.789063 96.3125 156.925781 96.3125 L 156.925781 95.28125 C 162.496094 88.539063 170.996094 86.339844 175.246094 79.015625 L 176.273438 79.015625 "/>
<path style=" stroke:none;fill-rule:nonzero;fill:rgb(32.199097%,17.298889%,49.798584%);fill-opacity:1;" d="M 227.726563 96.3125 C 230.804688 105.695313 224.792969 113.609375 217.902344 119.179688 C 210.28125 125.480469 199.140625 123.429688 191.8125 130.46875 L 178.765625 130.46875 C 170.261719 124.308594 161.175781 119.324219 153.40625 111.117188 C 149.886719 109.648438 143.585938 111.410156 142.558594 106.863281 C 141.972656 102.910156 146.957031 104.226563 148.859375 103.640625 L 197.457031 103.714844 C 198.476563 102.101563 198.410156 99.535156 199.582031 98.070313 C 202.511719 94.261719 206.179688 91.035156 210.429688 90.007813 C 217.464844 89.128906 223.769531 90.589844 227.726563 96.3125 "/>
<path style=" stroke:none;fill-rule:nonzero;fill:rgb(92.89856%,70.199585%,11.799622%);fill-opacity:1;" d="M 218.492188 99.097656 C 219.515625 102.027344 217.320313 103.199219 214.972656 103.640625 L 205.589844 103.347656 C 203.6875 98.949219 209.546875 97.773438 211.894531 95.871094 C 214.824219 94.257813 217.320313 97.339844 218.492188 99.097656 "/>
<path style=" stroke:none;fill-rule:nonzero;fill:rgb(32.199097%,17.298889%,49.798584%);fill-opacity:1;" d="M 216.144531 99.828125 C 216.292969 101.296875 214.53125 101.144531 213.652344 101.144531 L 210.867188 100.851563 C 210.132813 99.535156 211.75 98.652344 212.921875 98.363281 C 214.234375 98.363281 215.707031 98.363281 216.144531 99.828125 "/>
<path style=" stroke:none;fill-rule:nonzero;fill:rgb(92.89856%,70.199585%,11.799622%);fill-opacity:1;" d="M 291.34375 134.277344 C 293.394531 134.128906 293.246094 131.929688 294.128906 130.757813 C 298.671875 137.503906 301.167969 145.710938 303.363281 153.625 C 313.625 198.332031 298.234375 242.453125 264.664063 272.214844 C 254.988281 278.808594 246.339844 291.273438 233.292969 286.578125 L 220.6875 282.765625 C 216.878906 283.792969 213.507813 285.695313 209.40625 285.84375 L 209.40625 284.523438 C 214.386719 281.597656 223.328125 282.765625 224.210938 275 L 228.460938 262.980469 C 260.558594 242.898438 279.910156 209.472656 275.515625 170.925781 C 274.632813 160.078125 270.96875 150.253906 266.425781 141.019531 C 265.839844 139.554688 267.15625 139.113281 268.183594 138.820313 C 270.824219 137.792969 272.4375 142.335938 274.488281 139.554688 C 270.96875 132.515625 273.316406 122.988281 267.15625 116.976563 L 268.476563 114.925781 C 275.65625 122.550781 286.359375 124.601563 291.34375 134.277344 "/>
<path style=" stroke:none;fill-rule:nonzero;fill:rgb(92.89856%,70.199585%,11.799622%);fill-opacity:1;" d="M 97.847656 119.46875 C 92.867188 125.628906 96.238281 135.15625 92.28125 141.605469 C 93.742188 143.511719 96.234375 141.019531 97.558594 142.339844 C 83.632813 167.40625 85.535156 205.222656 99.609375 229.558594 C 107.523438 243.632813 121.007813 257.847656 135.523438 264.738281 C 137.28125 270.75 138.597656 276.757813 141.824219 282.03125 L 152.085938 285.554688 L 152.085938 286.578125 C 148.273438 287.164063 144.609375 285.113281 141.089844 283.796875 C 133.910156 285.695313 127.3125 288.628906 119.691406 289.363281 C 75.421875 261.367188 52.699219 211.671875 62.664063 159.195313 C 66.183594 148.054688 68.089844 136.183594 74.6875 126.214844 C 74.980469 126.800781 75.570313 126.359375 76.003906 126.507813 C 77.910156 128.855469 75.128906 133.542969 78.496094 135.011719 C 82.015625 131.929688 82.164063 126.214844 87.292969 124.015625 C 91.25 123.429688 93.742188 119.761719 97.554688 118.738281 L 97.847656 119.46875 "/>
<path style=" stroke:none;fill-rule:nonzero;fill:rgb(32.199097%,17.298889%,49.798584%);fill-opacity:1;" d="M 287.828125 133.980469 C 288.851563 137.355469 287.679688 140.871094 286.070313 143.804688 C 283.429688 144.390625 280.792969 142.925781 278.734375 141.019531 C 274.632813 136.621094 276.390625 129.875 274.484375 124.75 L 275.214844 123.429688 C 279.617188 126.507813 285.332031 128.414063 287.828125 133.980469 "/>
<path style=" stroke:none;fill-rule:nonzero;fill:rgb(32.199097%,17.298889%,49.798584%);fill-opacity:1;" d="M 92.28125 125.1875 C 93.453125 132.8125 91.839844 140.726563 84.804688 144.828125 C 83.921875 145.125 83.191406 145.855469 82.015625 145.5625 C 79.96875 143.070313 80.113281 139.40625 80.699219 136.328125 C 82.605469 131.933594 86.121094 124.894531 92.28125 125.1875 "/>
<path style=" stroke:none;fill-rule:nonzero;fill:rgb(32.199097%,17.298889%,49.798584%);fill-opacity:1;" d="M 242.089844 134.566406 L 242.164063 207.496094 C 238.570313 205.589844 235.347656 202.292969 232.5625 201.410156 C 232.34375 189.832031 232.34375 159.78125 232.5625 142.046875 L 230.808594 141.019531 L 136.988281 140.578125 C 136.988281 140.578125 131.929688 138.160156 125.992188 133.25 L 241.355469 133.25 L 242.089844 134.566406 "/>
<path style=" stroke:none;fill-rule:nonzero;fill:rgb(32.199097%,17.298889%,49.798584%);fill-opacity:1;" d="M 74.691406 133.25 C 77.183594 141.3125 81.871094 152.15625 76.007813 160.367188 C 69.851563 154.652344 68.824219 145.273438 71.464844 137.0625 C 72.929688 135.886719 72.050781 132.957031 74.691406 133.25 "/>
<path style=" stroke:none;fill-rule:nonzero;fill:rgb(32.199097%,17.298889%,49.798584%);fill-opacity:1;" d="M 195.035156 181.476563 C 209.988281 190.714844 226.699219 200.824219 242.089844 211.378906 C 241.871094 219.878906 234.90625 237.621094 228.015625 249.636719 C 208.816406 239.964844 190.929688 227.210938 172.460938 215.921875 C 156.046875 204.929688 139.480469 194.519531 123.210938 183.234375 L 122.480469 181.035156 L 122.550781 134.640625 L 129.371094 139.992188 L 195.035156 181.476563 "/>
<path style=" stroke:none;fill-rule:nonzero;fill:rgb(32.199097%,17.298889%,49.798584%);fill-opacity:1;" d="M 297.058594 141.019531 C 298.234375 146.148438 300.578125 151.28125 297.644531 156.410156 C 295.007813 158.316406 293.980469 162.128906 290.609375 162.417969 C 286.214844 153.921875 289.4375 144.683594 294.570313 137.503906 C 296.472656 137.503906 296.621094 139.699219 297.058594 141.019531 "/>
<path style=" stroke:none;fill-rule:nonzero;fill:rgb(32.199097%,17.298889%,49.798584%);fill-opacity:1;" d="M 284.746094 151.867188 L 287.09375 162.417969 C 277.855469 161.835938 274.925781 150.839844 271.992188 143.804688 C 276.835938 145.121094 281.378906 147.617188 284.746094 151.867188 "/>
<path style=" stroke:none;fill-rule:nonzero;fill:rgb(32.199097%,17.298889%,49.798584%);fill-opacity:1;" d="M 92.570313 145.855469 C 91.402344 154.066406 86.707031 162.128906 78.5 165.203125 C 78.0625 159.488281 80.257813 154.066406 83.488281 149.375 C 85.980469 147.175781 89.640625 146.445313 92.570313 145.855469 "/>
<path style=" stroke:none;fill-rule:nonzero;fill:rgb(32.199097%,17.298889%,49.798584%);fill-opacity:1;" d="M 67.652344 152.601563 C 71.761719 160.511719 75.859375 169.308594 73.664063 178.988281 C 65.601563 174.292969 64.722656 164.472656 65.453125 155.675781 C 65.894531 154.507813 66.042969 152.304688 67.652344 152.601563 "/>
<path style=" stroke:none;fill-rule:nonzero;fill:rgb(32.199097%,17.298889%,49.798584%);fill-opacity:1;" d="M 302.335938 160.664063 C 304.101563 169.160156 300.140625 176.785156 293.101563 181.476563 C 292.367188 181.769531 291.78125 180.890625 291.78125 180.304688 C 292.804688 174.589844 289.144531 168.28125 293.539063 163.886719 C 296.035156 162.714844 300.867188 153.773438 302.335938 160.664063 "/>
<path style=" stroke:none;fill-rule:nonzero;fill:rgb(32.199097%,17.298889%,49.798584%);fill-opacity:1;" d="M 288.558594 173.707031 C 289.144531 175.757813 289.144531 178.542969 288.558594 180.742188 C 281.523438 177.519531 278.152344 170.191406 277.269531 163.152344 L 278.296875 161.6875 C 282.253906 164.621094 289.875 167.113281 288.558594 173.707031 "/>
<path style=" stroke:none;fill-rule:nonzero;fill:rgb(32.199097%,17.298889%,49.798584%);fill-opacity:1;" d="M 87.738281 162.714844 C 87.589844 170.039063 83.046875 176.9375 77.472656 181.769531 L 76.449219 180.304688 C 76.300781 173.265625 79.675781 164.328125 87.738281 162.714844 "/>
<path style=" stroke:none;fill-rule:nonzero;fill:rgb(32.199097%,17.298889%,49.798584%);fill-opacity:1;" d="M 66.917969 176.492188 C 72.636719 181.917969 75.570313 188.363281 74.691406 196.574219 C 70.878906 195.992188 69.121094 190.714844 65.894531 188.070313 C 62.964844 183.527344 61.644531 176.933594 63.695313 171.507813 C 65.894531 172.09375 65.304688 175.023438 66.917969 176.492188 "/>
<path style=" stroke:none;fill-rule:nonzero;fill:rgb(32.199097%,17.298889%,49.798584%);fill-opacity:1;" d="M 303.363281 176.785156 C 304.683594 182.652344 302.925781 188.070313 299.40625 192.328125 C 296.910156 194.523438 294.566406 197.015625 291.34375 197.601563 C 288.996094 187.78125 295.738281 181.332031 303.363281 176.785156 "/>
<path style=" stroke:none;fill-rule:nonzero;fill:rgb(32.199097%,17.298889%,49.798584%);fill-opacity:1;" d="M 86.273438 179.71875 C 86.859375 187.78125 82.164063 194.230469 78.941406 200.390625 C 76.449219 195.546875 77.328125 188.660156 79.234375 183.820313 C 81.578125 182.503906 84.21875 175.023438 86.273438 179.71875 "/>
<path style=" stroke:none;fill-rule:nonzero;fill:rgb(32.199097%,17.298889%,49.798584%);fill-opacity:1;" d="M 287.09375 184.554688 C 288.851563 187.78125 289.292969 192.910156 287.53125 196.136719 C 280.203125 192.617188 279.910156 184.410156 279.46875 177.960938 C 282.988281 178.542969 284.457031 182.796875 287.09375 184.554688 "/>
<path style=" stroke:none;fill-rule:nonzero;fill:rgb(32.199097%,17.298889%,49.798584%);fill-opacity:1;" d="M 129.21875 190.488281 C 126.871094 210.570313 132.296875 231.316406 142.269531 247.148438 C 151.207031 262.832031 165.132813 275.878906 180.234375 285.84375 L 183.308594 285.84375 C 198.992188 275.214844 211.089844 263.859375 220.6875 248.90625 C 222.59375 249.785156 224.644531 250.8125 225.964844 252.425781 C 216.949219 265.324219 201.558594 282.179688 183.679688 291.929688 L 181.257813 292.875 C 142.558594 273.238281 118.664063 233.21875 122.476563 188.804688 L 122.476563 185.949219 C 124.820313 187.414063 126.433594 188.363281 129.21875 190.488281 "/>
<path style=" stroke:none;fill-rule:nonzero;fill:rgb(32.199097%,17.298889%,49.798584%);fill-opacity:1;" d="M 78.941406 217.976563 C 69.851563 212.40625 61.496094 203.464844 63.109375 192.027344 L 63.699219 189.832031 C 71.464844 197.453125 78.355469 207.273438 78.941406 217.976563 "/>
<path style=" stroke:none;fill-rule:nonzero;fill:rgb(32.199097%,17.298889%,49.798584%);fill-opacity:1;" d="M 285.042969 209.914063 C 284.160156 212.109375 283.574219 214.460938 282.253906 216.65625 C 276.980469 212.257813 275.949219 204.636719 277.710938 197.894531 L 279.03125 193.058594 C 285.332031 196.722656 286.210938 203.464844 285.042969 209.914063 "/>
<path style=" stroke:none;fill-rule:nonzero;fill:rgb(32.199097%,17.298889%,49.798584%);fill-opacity:1;" d="M 86.273438 193.789063 C 88.765625 201.558594 86.5625 210.0625 82.753906 216.65625 C 81.582031 216.367188 80.847656 214.75 80.703125 213.433594 C 78.941406 206.25 81.140625 198.335938 86.273438 193.789063 "/>
<path style=" stroke:none;fill-rule:nonzero;fill:rgb(32.199097%,17.298889%,49.798584%);fill-opacity:1;" d="M 302.925781 195.109375 C 302.628906 204.195313 296.621094 212.117188 288.265625 215.191406 L 287.09375 215.191406 C 286.066406 205.8125 294.71875 198.476563 302.335938 194.378906 L 302.925781 195.109375 "/>
<path style=" stroke:none;fill-rule:nonzero;fill:rgb(32.199097%,17.298889%,49.798584%);fill-opacity:1;" d="M 89.496094 209.914063 C 92.71875 216.65625 92.28125 225.742188 89.785156 232.777344 C 86.710938 232.339844 86.121094 227.359375 84.507813 224.714844 C 82.753906 218.414063 87.152344 214.75 88.761719 209.914063 L 89.496094 209.914063 "/>
<path style=" stroke:none;fill-rule:nonzero;fill:rgb(32.199097%,17.298889%,49.798584%);fill-opacity:1;" d="M 68.972656 213.136719 C 73.519531 219.445313 82.308594 223.402344 84.511719 231.316406 C 79.089844 230.292969 71.902344 228.820313 68.972656 222.519531 C 68.238281 219.003906 66.332031 215.484375 66.632813 211.96875 L 68.972656 213.136719 "/>
<path style=" stroke:none;fill-rule:nonzero;fill:rgb(32.199097%,17.298889%,49.798584%);fill-opacity:1;" d="M 278.734375 217.976563 C 279.46875 222.519531 279.324219 227.648438 275.949219 231.023438 C 273.019531 229.851563 272.871094 225.742188 271.699219 222.960938 C 271.40625 219.445313 271.699219 215.191406 274.191406 212.40625 C 276.535156 212.992188 277.566406 215.921875 278.734375 217.976563 "/>
<path style=" stroke:none;fill-rule:nonzero;fill:rgb(32.199097%,17.298889%,49.798584%);fill-opacity:1;" d="M 298.820313 212.699219 C 298.234375 217.976563 296.328125 223.546875 291.78125 227.507813 C 287.972656 229.261719 283.71875 231.171875 279.761719 231.316406 C 280.933594 222.375 289.730469 216.65625 297.058594 212.699219 L 298.820313 212.699219 "/>
<path style=" stroke:none;fill-rule:nonzero;fill:rgb(32.199097%,17.298889%,49.798584%);fill-opacity:1;" d="M 271.703125 231.023438 C 273.316406 236.300781 270.675781 241.140625 267.15625 244.363281 C 265.691406 241.285156 264.222656 237.617188 264.222656 233.511719 C 265.394531 230.726563 265.988281 226.773438 269.210938 225.746094 L 271.703125 231.023438 "/>
<path style=" stroke:none;fill-rule:nonzero;fill:rgb(32.199097%,17.298889%,49.798584%);fill-opacity:1;" d="M 98.875 233.515625 C 99.167969 237.765625 98.585938 241.574219 97.117188 245.097656 L 95.800781 245.097656 C 91.109375 240.402344 90.8125 233.074219 93.597656 227.507813 C 96.679688 223.839844 98.144531 231.171875 98.875 233.515625 "/>
<path style=" stroke:none;fill-rule:nonzero;fill:rgb(32.199097%,17.298889%,49.798584%);fill-opacity:1;" d="M 94.039063 247.878906 C 88.175781 248.613281 83.046875 245.679688 78.5 242.308594 C 75.714844 238.789063 73.371094 234.6875 72.929688 230.730469 C 82.015625 232.195313 90.667969 239.085938 94.039063 247.878906 "/>
<path style=" stroke:none;fill-rule:nonzero;fill:rgb(32.199097%,17.298889%,49.798584%);fill-opacity:1;" d="M 291.785156 231.316406 C 290.464844 236.003906 287.828125 240.699219 283.277344 243.335938 C 279.46875 244.363281 275.070313 245.828125 271.261719 244.800781 C 274.191406 236.152344 283.277344 231.757813 291.785156 231.316406 "/>
<path style=" stroke:none;fill-rule:nonzero;fill:rgb(32.199097%,17.298889%,49.798584%);fill-opacity:1;" d="M 263.195313 245.097656 C 262.175781 249.785156 260.414063 255.359375 255.136719 257.113281 C 254.257813 250.367188 255.285156 242.75 260.414063 237.769531 C 263.050781 238.503906 262.609375 242.460938 263.195313 245.097656 "/>
<path style=" stroke:none;fill-rule:nonzero;fill:rgb(32.199097%,17.298889%,49.798584%);fill-opacity:1;" d="M 107.085938 244.804688 C 108.84375 249.050781 109.429688 253.890625 109.136719 259.164063 L 107.085938 258.871094 C 103.566406 254.476563 97.703125 250.664063 100.046875 244.363281 C 101.664063 242.894531 100.78125 239.375 103.128906 239.085938 L 107.085938 244.804688 "/>
<path style=" stroke:none;fill-rule:nonzero;fill:rgb(32.199097%,17.298889%,49.798584%);fill-opacity:1;" d="M 282.253906 248.320313 C 278.589844 252.863281 275.367188 259.757813 268.472656 260.191406 L 258.359375 260.632813 C 258.949219 256.675781 263.636719 253.746094 267.15625 251.105469 C 271.703125 249.050781 276.980469 247.589844 282.253906 248.320313 "/>
<path style=" stroke:none;fill-rule:nonzero;fill:rgb(32.199097%,17.298889%,49.798584%);fill-opacity:1;" d="M 106.351563 261.953125 C 102.394531 263.273438 98 261.511719 93.601563 261.660156 C 87.734375 260.046875 85.390625 254.183594 82.019531 249.640625 L 82.019531 248.320313 C 90.960938 250.960938 100.78125 252.570313 106.351563 261.953125 "/>
<path style=" stroke:none;fill-rule:nonzero;fill:rgb(32.199097%,17.298889%,49.798584%);fill-opacity:1;" d="M 251.914063 248.90625 C 252.351563 254.183594 251.761719 259.898438 248.394531 264.152344 C 246.046875 265.617188 243.851563 267.519531 241.359375 268.691406 C 240.921875 260.929688 243.703125 251.980469 251.914063 248.90625 "/>
<path style=" stroke:none;fill-rule:nonzero;fill:rgb(32.199097%,17.298889%,49.798584%);fill-opacity:1;" d="M 123.941406 271.183594 C 120.128906 271.042969 117.050781 267.378906 114.121094 264.738281 C 111.480469 261.074219 111.480469 255.5 112.652344 251.105469 C 118.957031 256.089844 123.503906 263.125 123.941406 271.183594 "/>
<path style=" stroke:none;fill-rule:nonzero;fill:rgb(32.199097%,17.298889%,49.798584%);fill-opacity:1;" d="M 236.082031 270.453125 C 234.320313 274.117188 230.214844 276.320313 226.992188 276.757813 C 227.730469 270.453125 230.65625 261.367188 238.570313 259.460938 C 239.890625 263.125 237.257813 266.9375 236.082031 270.453125 "/>
<path style=" stroke:none;fill-rule:nonzero;fill:rgb(32.199097%,17.298889%,49.798584%);fill-opacity:1;" d="M 137.28125 278.8125 C 133.617188 277.933594 129.21875 277.050781 127.460938 272.945313 C 126.289063 269.574219 125.261719 265.910156 125.699219 262.390625 C 133.03125 264.589844 135.667969 272.355469 137.28125 278.8125 "/>
<path style=" stroke:none;fill-rule:nonzero;fill:rgb(32.199097%,17.298889%,49.798584%);fill-opacity:1;" d="M 267.15625 263.421875 C 266.128906 266.347656 263.492188 269.28125 260.707031 270.746094 C 256.164063 275.289063 248.097656 274.265625 242.535156 272.507813 C 248.25 265.027344 257.628906 262.242188 267.15625 263.421875 "/>
<path style=" stroke:none;fill-rule:nonzero;fill:rgb(32.199097%,17.298889%,49.798584%);fill-opacity:1;" d="M 118.960938 273.238281 C 114.121094 275.289063 106.351563 276.902344 101.808594 273.238281 C 99.460938 270.601563 95.945313 268.253906 94.773438 265.175781 C 98.4375 264.152344 102.980469 265.765625 107.085938 266.207031 C 111.628906 267.085938 116.175781 269.429688 118.960938 273.238281 "/>
<path style=" stroke:none;fill-rule:nonzero;fill:rgb(32.199097%,17.298889%,49.798584%);fill-opacity:1;" d="M 254.113281 276.757813 C 249.859375 281.597656 243.40625 284.964844 236.519531 283.5 C 233.589844 282.328125 228.3125 283.058594 228.019531 279.984375 C 234.761719 272.066406 245.167969 277.34375 254.113281 276.757813 "/>
<path style=" stroke:none;fill-rule:nonzero;fill:rgb(32.199097%,17.298889%,49.798584%);fill-opacity:1;" d="M 135.230469 282.035156 C 130.539063 286.140625 122.476563 287.605469 116.464844 284.816406 C 114.410156 282.769531 110.164063 281.738281 110.164063 278.515625 C 118.519531 275.4375 128.191406 277.632813 135.230469 282.035156 "/>
<path style=" stroke:none;fill-rule:nonzero;fill:rgb(92.89856%,70.199585%,11.799622%);fill-opacity:1;" d="M 30.648438 254.621094 L 31.824219 254.089844 L 33.035156 255.972656 L 50.273438 248.121094 C 53.683594 246.566406 54.84375 242.496094 53.539063 239.636719 C 51.96875 236.183594 48.570313 234.460938 44.679688 236.230469 L 30.410156 242.726563 C 28.429688 243.632813 28.113281 245.460938 28.714844 247.265625 L 27.539063 247.800781 L 23.964844 239.949219 L 25.140625 239.417969 C 26.109375 241.058594 27.695313 242.019531 29.675781 241.113281 L 42.992188 235.046875 C 47.464844 233.007813 52.449219 232.957031 55.589844 239.855469 C 58.09375 245.355469 57.960938 250.023438 52.3125 252.59375 L 35.074219 260.449219 L 35.699219 262.601563 L 34.523438 263.136719 L 30.648438 254.621094 "/>
<path style=" stroke:none;fill-rule:nonzero;fill:rgb(92.89856%,70.199585%,11.799622%);fill-opacity:1;" d="M 37.054688 210.796875 L 37.035156 210.71875 L 21.660156 214.546875 C 19.46875 215.085938 19.304688 216.25 19.515625 218.273438 L 18.265625 218.585938 L 16.335938 210.84375 L 17.589844 210.53125 C 18.347656 212.417969 19.824219 213.171875 21.703125 212.703125 L 45.054688 206.898438 L 45.515625 208.734375 L 26.804688 229.050781 L 26.824219 229.128906 L 44.039063 224.847656 C 46.152344 224.320313 46.796875 222.582031 46.535156 220.695313 L 47.789063 220.382813 L 49.871094 228.753906 L 48.617188 229.066406 C 47.964844 227.277344 46.304688 226.113281 44.039063 226.675781 L 26.746094 230.976563 C 24.398438 231.558594 23.476563 233.371094 23.738281 235.253906 L 22.488281 235.5625 L 20.695313 228.367188 L 37.054688 210.796875 "/>
<path style=" stroke:none;fill-rule:nonzero;fill:rgb(92.89856%,70.199585%,11.799622%);fill-opacity:1;" d="M 43.964844 202.242188 L 42.679688 202.378906 L 42.125 200.210938 L 17.273438 202.875 L 17.191406 205.109375 L 15.910156 205.25 L 14.910156 195.949219 L 16.195313 195.8125 L 16.75 197.980469 L 41.601563 195.320313 L 41.683594 193.082031 L 42.96875 192.945313 L 43.964844 202.242188 "/>
<path style=" stroke:none;fill-rule:nonzero;fill:rgb(92.89856%,70.199585%,11.799622%);fill-opacity:1;" d="M 42.96875 182.320313 L 15.925781 190.074219 L 15.574219 192.285156 L 14.28125 192.269531 L 14.414063 182.878906 L 15.710938 182.898438 L 15.996094 185.117188 L 37.9375 178.863281 L 37.9375 178.78125 L 21.367188 173.464844 C 19.726563 172.957031 18.761719 172.578125 18.074219 172.570313 C 16.824219 172.550781 16.207031 173.671875 15.816406 175.359375 L 14.527344 175.339844 L 14.644531 167.4375 L 15.933594 167.460938 C 16.269531 169.15625 17.019531 170.335938 18.585938 170.84375 L 40.574219 177.976563 L 43.046875 177.082031 L 42.96875 182.320313 "/>
<path style=" stroke:none;fill-rule:nonzero;fill:rgb(92.89856%,70.199585%,11.799622%);fill-opacity:1;" d="M 46.847656 149.804688 C 46.328125 150.445313 45.882813 151.800781 45.609375 153.390625 L 42.925781 168.675781 L 41.65625 168.453125 L 41.722656 166.214844 L 17.105469 161.902344 L 16.410156 164.027344 L 15.136719 163.808594 L 17.769531 148.800781 C 18.042969 147.214844 18.09375 145.785156 17.820313 145.003906 L 26.199219 144.589844 L 26.257813 146.113281 C 21.324219 147.414063 19.019531 149.144531 17.996094 154.980469 C 17.875 155.652344 17.839844 156.34375 17.957031 157.058594 L 28.597656 158.921875 L 28.875 157.335938 C 29.355469 154.59375 28.261719 153.378906 25.195313 152.1875 L 25.417969 150.917969 L 35.582031 152.699219 L 35.355469 153.96875 C 32.066406 154.046875 30.621094 154.816406 30.144531 157.558594 L 29.871094 159.144531 L 42.574219 161.371094 C 42.925781 160.738281 43.125 160.074219 43.246094 159.402344 C 44.25 153.644531 42.109375 150.691406 37.648438 147.660156 L 38.226563 146.242188 L 46.847656 149.804688 "/>
<path style=" stroke:none;fill-rule:nonzero;fill:rgb(92.89856%,70.199585%,11.799622%);fill-opacity:1;" d="M 35.304688 133.386719 L 35.921875 131.683594 C 37.730469 126.722656 36.515625 124.175781 32.878906 122.851563 C 28.867188 121.390625 26.390625 123.707031 25.234375 126.886719 C 24.972656 127.605469 24.753906 128.554688 24.511719 129.453125 Z M 22.941406 134.117188 L 21.878906 136.089844 L 20.664063 135.644531 L 24.1875 125.988281 C 26.007813 120.992188 29.058594 115.796875 35.082031 117.992188 C 38.375 119.191406 39.566406 123.101563 38.984375 126.234375 L 53.113281 124.304688 L 54.171875 122.335938 L 55.386719 122.777344 L 53.039063 129.210938 L 37.464844 131.214844 L 36.515625 133.828125 L 48.105469 138.050781 L 49.167969 136.078125 L 50.378906 136.523438 L 47.175781 145.308594 L 45.960938 144.867188 L 46.417969 142.671875 L 22.941406 134.117188 "/>
<path style=" stroke:none;fill-rule:nonzero;fill:rgb(92.89856%,70.199585%,11.799622%);fill-opacity:1;" d="M 47.265625 96.039063 L 46.882813 97.445313 C 43.539063 97.214844 38.828125 97.171875 36.875 100.605469 C 35.433594 103.128906 35.976563 105.523438 38.148438 106.757813 C 45.046875 110.6875 49.21875 95.714844 58.886719 101.21875 C 63.160156 103.65625 64.195313 108.835938 61.78125 113.074219 C 60.300781 115.664063 58.085938 116.953125 57.40625 118.144531 C 56.988281 118.882813 56.863281 119.832031 56.722656 120.726563 L 48.503906 117.808594 L 49.089844 116.378906 C 53.386719 116.738281 58.285156 115.957031 60.519531 112.03125 C 61.851563 109.683594 61.144531 106.539063 58.792969 105.203125 C 52.171875 101.433594 47.722656 115.921875 37.949219 110.359375 C 34.695313 108.503906 33.058594 104.046875 35.375 99.980469 C 35.96875 98.929688 36.53125 98.277344 37.121094 97.730469 C 37.710938 97.183594 38.226563 96.6875 38.601563 96.023438 C 39.023438 95.285156 39.296875 94.234375 39.242188 93.1875 L 47.265625 96.039063 "/>
<path style=" stroke:none;fill-rule:nonzero;fill:rgb(92.89856%,70.199585%,11.799622%);fill-opacity:1;" d="M 67.414063 102.902344 L 66.378906 102.136719 L 67.445313 100.164063 L 47.394531 85.257813 L 45.8125 86.839844 L 44.777344 86.070313 L 50.355469 78.566406 L 51.390625 79.335938 L 50.328125 81.308594 L 70.375 96.21875 L 71.957031 94.632813 L 72.992188 95.402344 L 67.414063 102.902344 "/>
<path style=" stroke:none;fill-rule:nonzero;fill:rgb(92.89856%,70.199585%,11.799622%);fill-opacity:1;" d="M 65.992188 61.230469 C 67.109375 60.070313 67.945313 58.914063 68.160156 58.113281 L 75.539063 62.777344 L 74.871094 63.925781 C 71.085938 62.453125 67.421875 61.605469 64.257813 64.878906 L 82.464844 82.464844 L 84.234375 81.097656 L 85.164063 81.992188 L 78.664063 88.71875 L 77.738281 87.820313 L 79.046875 86.003906 L 60.84375 68.414063 C 57.679688 71.691406 58.652344 75.324219 60.253906 79.058594 L 59.128906 79.761719 L 54.214844 72.546875 C 55.011719 72.308594 56.132813 71.433594 57.253906 70.273438 L 65.992188 61.230469 "/>
<path style=" stroke:none;fill-rule:nonzero;fill:rgb(92.89856%,70.199585%,11.799622%);fill-opacity:1;" d="M 80.054688 49.273438 L 80.828125 50.308594 L 79.246094 51.894531 L 91.59375 58.144531 L 90.207031 49.917969 C 89.9375 48.355469 89.664063 47.253906 89.15625 46.574219 C 88.285156 45.414063 87.019531 46.011719 85.789063 46.582031 L 85.015625 45.550781 L 91.496094 40.691406 L 92.265625 41.722656 C 91.078125 42.820313 90.839844 44.65625 91.199219 46.609375 L 93.515625 59.570313 L 99.683594 67.792969 L 101.648438 66.71875 L 102.425781 67.75 L 94.945313 73.359375 L 94.171875 72.332031 L 95.753906 70.742188 L 89.515625 62.425781 L 74.863281 55.183594 L 72.894531 56.253906 L 72.125 55.222656 L 80.054688 49.273438 "/>
<path style=" stroke:none;fill-rule:nonzero;fill:rgb(92.89856%,70.199585%,11.799622%);fill-opacity:1;" d="M 127.582031 38.488281 C 123.65625 29.382813 120.0625 27.464844 116.359375 29.0625 C 113.175781 30.433594 111.863281 35.21875 115.515625 43.695313 C 119.445313 52.804688 123.039063 54.71875 126.738281 53.125 C 129.921875 51.746094 131.242188 46.96875 127.582031 38.488281 M 110.628906 45.804688 C 107.964844 39.621094 109.390625 30.3125 115.722656 27.578125 C 122.644531 24.59375 129.355469 29.164063 132.46875 36.382813 C 135.136719 42.5625 133.710938 51.871094 127.378906 54.605469 C 120.457031 57.589844 113.742188 53.019531 110.628906 45.804688 "/>
<path style=" stroke:none;fill-rule:nonzero;fill:rgb(92.89856%,70.199585%,11.799622%);fill-opacity:1;" d="M 140.085938 48.871094 L 139.785156 47.617188 L 141.859375 46.777344 L 135.953125 22.496094 L 133.722656 22.710938 L 133.421875 21.457031 L 147.632813 17.996094 C 149.199219 17.613281 150.523438 17.089844 151.136719 16.523438 L 155.328125 24.382813 L 153.925781 25.097656 C 150.476563 21.328125 148.019531 19.230469 142.652344 20.535156 C 141.984375 20.695313 141.339844 20.9375 140.734375 21.335938 L 143.382813 32.222656 L 145.691406 31.660156 C 148.277344 31.03125 148.652344 28.992188 148.449219 26.636719 L 149.707031 26.328125 L 152.117188 36.238281 L 150.859375 36.542969 C 149.851563 33.925781 148.582031 32.285156 145.996094 32.914063 L 143.683594 33.476563 L 146.640625 45.617188 L 148.867188 45.40625 L 149.175781 46.660156 L 140.085938 48.871094 "/>
<path style=" stroke:none;fill-rule:nonzero;fill:rgb(92.89856%,70.199585%,11.799622%);fill-opacity:1;" d="M 189.753906 34.535156 L 189.832031 34.535156 L 189.78125 18.691406 C 189.769531 16.4375 188.683594 16 186.667969 15.722656 L 186.664063 14.433594 L 194.644531 14.40625 L 194.644531 15.695313 C 192.632813 15.984375 191.550781 17.234375 191.558594 19.175781 L 191.636719 43.234375 L 189.738281 43.242188 L 174.472656 20.238281 L 174.386719 20.238281 L 174.449219 37.96875 C 174.457031 40.148438 175.988281 41.1875 177.882813 41.386719 L 177.894531 42.675781 L 169.261719 42.703125 L 169.261719 41.414063 C 171.152344 41.207031 172.683594 39.871094 172.675781 37.535156 L 172.613281 19.71875 C 172.609375 17.300781 171.070313 15.976563 169.175781 15.78125 L 169.171875 14.492188 L 176.585938 14.464844 L 189.753906 34.535156 "/>
<path style=" stroke:none;fill-rule:nonzero;fill:rgb(92.89856%,70.199585%,11.799622%);fill-opacity:1;" d="M 216.382813 32.15625 C 218.136719 22.402344 216.203125 18.816406 212.238281 18.105469 C 208.828125 17.488281 205.089844 20.746094 203.453125 29.828125 C 201.699219 39.585938 203.636719 43.167969 207.601563 43.878906 C 211.007813 44.492188 214.75 41.234375 216.382813 32.15625 M 198.21875 28.886719 C 199.410156 22.265625 205.742188 15.296875 212.523438 16.519531 C 219.9375 17.851563 223.007813 25.363281 221.617188 33.097656 C 220.429688 39.722656 214.097656 46.6875 207.3125 45.46875 C 199.898438 44.132813 196.824219 36.621094 198.21875 28.886719 "/>
<path style=" stroke:none;fill-rule:nonzero;fill:rgb(92.89856%,70.199585%,11.799622%);fill-opacity:1;" d="M 233.390625 35.910156 L 235.085938 36.550781 C 240.023438 38.421875 242.582031 37.234375 243.953125 33.617188 C 245.464844 29.621094 243.183594 27.121094 240.015625 25.921875 C 239.300781 25.648438 238.355469 25.421875 237.457031 25.167969 Z M 232.816406 23.539063 L 230.855469 22.453125 L 231.3125 21.246094 L 240.925781 24.890625 C 245.902344 26.769531 251.054688 29.886719 248.785156 35.878906 C 247.546875 39.15625 243.617188 40.300781 240.496094 39.679688 L 242.246094 53.828125 L 244.207031 54.917969 L 243.75 56.121094 L 237.34375 53.695313 L 235.53125 38.101563 L 232.933594 37.117188 L 228.566406 48.648438 L 230.527344 49.734375 L 230.066406 50.941406 L 221.324219 47.628906 L 221.78125 46.421875 L 223.96875 46.910156 L 232.816406 23.539063 "/>
<path style=" stroke:none;fill-rule:nonzero;fill:rgb(92.89856%,70.199585%,11.799622%);fill-opacity:1;" d="M 273.816406 41.261719 C 275.203125 42.085938 276.519531 42.632813 277.351563 42.65625 L 274.503906 50.90625 L 273.226563 50.523438 C 273.796875 46.5 273.78125 42.738281 269.867188 40.410156 L 256.921875 62.152344 L 258.660156 63.566406 L 257.996094 64.671875 L 249.964844 59.890625 L 250.625 58.78125 L 252.695313 59.636719 L 265.644531 37.890625 C 261.734375 35.5625 258.421875 37.34375 255.152344 39.757813 L 254.207031 38.820313 L 260.105469 32.390625 C 260.523438 33.105469 261.632813 34.003906 263.015625 34.824219 L 273.816406 41.261719 "/>
<path style=" stroke:none;fill-rule:nonzero;fill:rgb(92.89856%,70.199585%,11.799622%);fill-opacity:1;" d="M 283.648438 83.046875 L 285.101563 84.75 L 284.246094 85.71875 L 277.21875 79.5625 L 278.066406 78.59375 L 279.945313 79.808594 L 288.070313 70.53125 L 279.523438 63.046875 L 271.402344 72.320313 L 272.855469 74.023438 L 272.007813 74.996094 L 264.972656 68.835938 L 265.824219 67.863281 L 267.703125 69.082031 L 284.164063 50.289063 L 282.707031 48.589844 L 283.558594 47.617188 L 290.589844 53.777344 L 289.742188 54.75 L 287.859375 53.53125 L 280.640625 61.773438 L 289.1875 69.261719 L 296.410156 61.015625 L 294.953125 59.316406 L 295.804688 58.34375 L 302.835938 64.503906 L 301.984375 65.476563 L 300.105469 64.253906 L 283.648438 83.046875 "/>
<path style=" stroke:none;fill-rule:nonzero;fill:rgb(92.89856%,70.199585%,11.799622%);fill-opacity:1;" d="M 297.03125 102.832031 C 296.898438 102.011719 296.179688 100.785156 295.179688 99.523438 L 285.539063 87.359375 L 286.554688 86.5625 L 288.183594 88.097656 L 307.765625 72.582031 L 306.640625 70.644531 L 307.648438 69.839844 L 317.109375 81.777344 C 318.109375 83.042969 319.148438 84.023438 319.914063 84.339844 L 314.652344 90.875 L 313.472656 89.90625 C 315.78125 85.355469 316.027344 82.484375 312.347656 77.84375 C 311.925781 77.304688 311.433594 76.820313 310.816406 76.433594 L 302.351563 83.140625 L 303.355469 84.402344 C 305.082031 86.582031 306.71875 86.570313 309.644531 85.074219 L 310.441406 86.085938 L 302.359375 92.492188 L 301.558594 91.480469 C 303.683594 88.972656 304.066406 87.382813 302.34375 85.203125 L 301.339844 83.941406 L 291.234375 91.949219 C 291.46875 92.636719 291.832031 93.226563 292.257813 93.761719 C 295.886719 98.339844 299.519531 98.699219 304.746094 97.386719 L 305.421875 98.757813 L 297.03125 102.832031 "/>
<path style=" stroke:none;fill-rule:nonzero;fill:rgb(92.89856%,70.199585%,11.799622%);fill-opacity:1;" d="M 316.972656 105.085938 L 317.832031 106.679688 C 320.34375 111.324219 323.058594 112.101563 326.460938 110.265625 C 330.21875 108.234375 330.125 104.847656 328.519531 101.867188 C 328.152344 101.191406 327.585938 100.398438 327.074219 99.625 Z M 324.628906 95.355469 L 323.859375 93.25 L 324.992188 92.640625 L 329.878906 101.679688 C 332.414063 106.359375 334.273438 112.085938 328.636719 115.136719 C 325.554688 116.800781 321.835938 115.101563 319.878906 112.585938 L 311.949219 124.433594 L 312.71875 126.535156 L 311.582031 127.148438 L 308.324219 121.121094 L 317.160156 108.144531 L 315.835938 105.695313 L 304.988281 111.5625 L 305.761719 113.667969 L 304.625 114.277344 L 300.175781 106.054688 L 301.3125 105.441406 L 302.652344 107.238281 L 324.628906 95.355469 "/>
<path style=" stroke:none;fill-rule:nonzero;fill:rgb(92.89856%,70.199585%,11.799622%);fill-opacity:1;" d="M 325.710938 144.425781 L 325.730469 144.503906 L 340.808594 139.640625 C 342.953125 138.949219 343.046875 137.777344 342.695313 135.773438 L 343.921875 135.378906 L 346.371094 142.972656 L 345.144531 143.367188 C 344.257813 141.539063 342.730469 140.886719 340.894531 141.476563 L 317.992188 148.863281 L 317.410156 147.058594 L 334.6875 125.523438 L 334.667969 125.445313 L 317.785156 130.886719 C 315.710938 131.558594 315.183594 133.335938 315.574219 135.199219 L 314.351563 135.597656 L 311.703125 127.390625 L 312.925781 126.992188 C 313.703125 128.730469 315.4375 129.78125 317.660156 129.066406 L 334.617188 123.597656 C 336.921875 122.851563 337.714844 120.988281 337.328125 119.121094 L 338.554688 118.730469 L 340.832031 125.789063 L 325.710938 144.425781 "/>
<path style=" stroke:none;fill-rule:nonzero;fill:rgb(92.89856%,70.199585%,11.799622%);fill-opacity:1;" d="M 321.058594 162.882813 L 322.339844 162.746094 L 322.890625 164.914063 L 347.746094 162.28125 L 347.835938 160.046875 L 349.117188 159.90625 L 350.101563 169.207031 L 348.816406 169.34375 L 348.265625 167.171875 L 323.414063 169.804688 L 323.324219 172.046875 L 322.046875 172.179688 L 321.058594 162.882813 "/>
<path style=" stroke:none;fill-rule:nonzero;fill:rgb(92.89856%,70.199585%,11.799622%);fill-opacity:1;" d="M 336.195313 193.707031 C 346.105469 193.996094 349.359375 191.550781 349.476563 187.523438 C 349.582031 184.058594 345.804688 180.847656 336.578125 180.574219 C 326.671875 180.28125 323.414063 182.726563 323.292969 186.757813 C 323.195313 190.21875 326.96875 193.4375 336.195313 193.707031 M 336.738281 175.257813 C 343.46875 175.453125 351.292969 180.683594 351.089844 187.570313 C 350.871094 195.105469 343.894531 199.253906 336.042969 199.023438 C 329.3125 198.824219 321.484375 193.59375 321.683594 186.710938 C 321.90625 179.175781 328.882813 175.027344 336.738281 175.257813 "/>
<path style=" stroke:none;fill-rule:nonzero;fill:rgb(92.89856%,70.199585%,11.799622%);fill-opacity:1;" d="M 320.179688 206.820313 L 347.960938 206.378906 L 348.785156 204.300781 L 350.039063 204.601563 L 347.859375 213.730469 L 346.605469 213.429688 L 346.804688 211.195313 L 325.246094 211.265625 L 325.230469 211.34375 L 340.109375 219.457031 L 345.820313 219.128906 L 346.007813 224.0625 L 322.097656 224.429688 L 322.078125 224.511719 L 337.125 232.621094 C 338.039063 233.132813 338.707031 233.457031 339.257813 233.585938 C 340.78125 233.957031 341.644531 233.292969 342.273438 231.535156 L 343.527344 231.835938 L 341.773438 239.160156 L 340.519531 238.859375 C 340.78125 236.894531 339.730469 235.941406 337.96875 234.980469 L 318.921875 224.710938 L 315.835938 224.964844 L 317.046875 219.910156 L 336.921875 219.605469 L 336.941406 219.53125 L 322.089844 211.464844 L 319.015625 211.679688 L 320.179688 206.820313 "/>
<path style=" stroke:none;fill-rule:nonzero;fill:rgb(92.89856%,70.199585%,11.799622%);fill-opacity:1;" d="M 318.070313 247.9375 L 331.773438 249.613281 L 331.804688 249.539063 L 321.644531 240.21875 Z M 315.054688 229.128906 L 316.226563 229.671875 C 315.898438 232.007813 316.347656 233.144531 318.054688 234.734375 L 334.097656 249.578125 L 336.679688 249.664063 L 334.648438 254.722656 L 306.65625 251.488281 L 305.289063 253.292969 L 304.117188 252.753906 L 308.164063 244.015625 L 309.335938 244.554688 L 308.84375 246.769531 L 316.332031 247.664063 L 320.367188 238.957031 L 317.394531 236.253906 C 316.859375 235.78125 316.488281 235.519531 315.90625 235.253906 C 314.625 234.660156 313.796875 235.875 312.871094 236.910156 L 311.699219 236.371094 L 315.054688 229.128906 "/>
<path style=" stroke:none;fill-rule:nonzero;fill:rgb(92.89856%,70.199585%,11.799622%);fill-opacity:1;" d="M 109.667969 326.730469 C 105.851563 329.992188 100.78125 331.105469 96.554688 328.59375 C 90.355469 324.90625 89.984375 317.324219 93.898438 310.742188 C 97.460938 304.746094 105.152344 299.46875 111.664063 303.34375 C 112.601563 303.898438 113.351563 304.53125 113.984375 305.191406 C 114.660156 305.875 115.253906 306.457031 115.734375 306.75 C 116.289063 307.078125 117.515625 307.382813 118.695313 307.523438 L 115.925781 316.050781 L 114.425781 315.582031 C 114.636719 311.675781 114.476563 306.894531 111.1875 304.9375 C 106.957031 302.421875 102.269531 306.292969 99.816406 310.414063 C 96.601563 315.816406 94.675781 323.632813 100.015625 326.804688 C 102.785156 328.449219 106.335938 327.613281 108.773438 325.636719 L 109.667969 326.730469 "/>
<path style=" stroke:none;fill-rule:nonzero;fill:rgb(92.89856%,70.199585%,11.799622%);fill-opacity:1;" d="M 123.128906 327.605469 C 124.769531 327.855469 125.664063 327.265625 126.410156 325.476563 C 127.179688 323.617188 126.480469 322.148438 124.808594 321.453125 C 122.238281 320.386719 119.890625 323.210938 118.34375 326.929688 Z M 118.070313 328.648438 C 116.941406 331.671875 117.21875 335.628906 120.644531 337.050781 C 122.914063 337.992188 124.011719 337.140625 125.757813 336.292969 L 126.4375 337.492188 C 123.519531 339.378906 120.863281 340.414063 117.4375 338.992188 C 113.082031 337.179688 112.351563 331.902344 114.175781 327.511719 C 116.109375 322.863281 120.804688 318.269531 125.90625 320.382813 C 129.851563 322.023438 130.894531 326.558594 129.449219 330.144531 L 118.070313 328.648438 "/>
<path style=" stroke:none;fill-rule:nonzero;fill:rgb(92.89856%,70.199585%,11.799622%);fill-opacity:1;" d="M 144.976563 331.089844 C 145.386719 329.570313 144.261719 328.015625 142.667969 327.582031 C 139.949219 326.847656 137.945313 329.769531 136.816406 333.933594 C 136.085938 336.613281 135.640625 342.132813 138.984375 343.035156 C 140.539063 343.457031 141.921875 342.367188 142.308594 340.933594 Z M 147.558594 321.558594 C 147.90625 320.277344 147.273438 319.6875 145.871094 319.308594 L 146.15625 318.257813 L 152.820313 317.558594 L 146.074219 342.449219 C 145.589844 344.238281 145.628906 345.335938 147.140625 345.910156 L 146.855469 346.960938 L 142.167969 347.152344 C 141.6875 346.3125 141.710938 345.148438 141.769531 343.996094 C 140.230469 344.914063 138.085938 346.046875 136.101563 345.507813 C 131.980469 344.394531 131.253906 339.058594 132.304688 335.171875 C 133.75 329.84375 137.28125 324.660156 142.804688 326.15625 C 144.203125 326.539063 145.214844 327.269531 145.828125 327.941406 L 147.558594 321.558594 "/>
<path style=" stroke:none;fill-rule:nonzero;fill:rgb(92.89856%,70.199585%,11.799622%);fill-opacity:1;" d="M 162.703125 338.90625 C 159.1875 339.359375 156.863281 340.871094 156.453125 343.867188 C 156.226563 345.496094 157.449219 347.257813 158.652344 347.417969 C 159.765625 347.574219 161.046875 347.136719 161.65625 346.53125 Z M 165.644531 347.117188 C 165.535156 347.917969 165.5625 348.613281 166.402344 348.730469 C 166.839844 348.785156 167.351563 348.613281 167.835938 348.355469 L 168.398438 349.285156 C 167.847656 350.023438 166.132813 351.296875 164.332031 351.046875 C 162.296875 350.769531 161.757813 349.351563 161.625 347.953125 C 159.894531 349.339844 158.226563 350.207031 155.949219 349.898438 C 153.394531 349.542969 151.773438 347.125 152.125 344.574219 C 152.84375 339.34375 158.433594 338.601563 162.910156 337.429688 L 163.175781 335.472656 C 163.46875 333.355469 162.089844 331.539063 160.730469 331.351563 C 160.011719 331.257813 159.328125 333.886719 157.214844 333.597656 C 155.652344 333.378906 155.019531 332.6875 155.191406 331.410156 C 155.421875 329.726563 157.371094 329.46875 158.882813 329.675781 C 161.839844 330.082031 167.628906 332.667969 166.996094 337.257813 L 165.644531 347.117188 "/>
<path style=" stroke:none;fill-rule:nonzero;fill:rgb(92.89856%,70.199585%,11.799622%);fill-opacity:1;" d="M 176.234375 331.394531 C 177.417969 332.433594 177.824219 335.542969 178.011719 337.609375 L 178.097656 337.609375 C 179.117188 335.417969 180.625 331.507813 183.484375 331.574219 C 185.296875 331.625 186.164063 332.488281 186.125 334.019531 C 186.097656 335.066406 184.855469 336.367188 183.324219 336.328125 C 182.238281 336.300781 181.242188 335.835938 180.960938 335.828125 C 180.117188 335.804688 178.507813 338.867188 178.324219 346.078125 C 178.292969 347.285156 178.304688 348.578125 178.472656 349.832031 L 180.679688 350.289063 L 180.652344 351.375 L 171.949219 351.15625 L 171.976563 350.070313 L 174.203125 349.726563 L 174.476563 338.847656 C 174.535156 336.550781 173.914063 333.992188 171.65625 333.941406 L 171.683594 332.851563 L 176.234375 331.394531 "/>
<path style=" stroke:none;fill-rule:nonzero;fill:rgb(92.89856%,70.199585%,11.799622%);fill-opacity:1;" d="M 201.582031 350.570313 L 201.363281 349.296875 L 203.5 348.609375 L 199.324219 323.964844 L 197.085938 324.023438 L 196.867188 322.746094 L 211.296875 320.308594 C 212.886719 320.035156 214.242188 319.601563 214.890625 319.085938 L 218.523438 327.21875 L 217.070313 327.832031 C 213.898438 323.828125 211.589844 321.5625 206.144531 322.488281 C 205.46875 322.601563 204.808594 322.792969 204.171875 323.148438 L 206.042969 334.199219 L 208.386719 333.800781 C 211.011719 333.355469 211.53125 331.347656 211.496094 328.980469 L 212.769531 328.765625 L 214.472656 338.816406 L 213.203125 339.035156 C 212.378906 336.351563 211.226563 334.628906 208.605469 335.070313 L 206.261719 335.46875 L 208.347656 347.789063 L 210.585938 347.738281 L 210.800781 349.007813 L 201.582031 350.570313 "/>
<path style=" stroke:none;fill-rule:nonzero;fill:rgb(92.89856%,70.199585%,11.799622%);fill-opacity:1;" d="M 231.527344 332.367188 C 228.535156 334.28125 227.074219 336.636719 227.984375 339.519531 C 228.480469 341.09375 230.332031 342.160156 231.484375 341.800781 C 232.5625 341.464844 233.53125 340.523438 233.824219 339.714844 Z M 237.683594 338.542969 C 237.925781 339.316406 238.25 339.933594 239.054688 339.679688 C 239.480469 339.542969 239.867188 339.171875 240.191406 338.730469 L 241.097656 339.335938 C 240.917969 340.234375 239.902344 342.117188 238.175781 342.65625 C 236.210938 343.273438 235.121094 342.222656 234.40625 341.007813 C 233.425781 343.003906 232.292969 344.507813 230.097656 345.191406 C 227.640625 345.964844 225.140625 344.460938 224.371094 342.003906 C 222.789063 336.96875 227.535156 333.917969 231.078125 330.949219 L 230.492188 329.0625 C 229.847656 327.027344 227.828125 325.96875 226.519531 326.378906 C 225.828125 326.597656 226.332031 329.273438 224.292969 329.90625 C 222.792969 330.378906 221.921875 330.019531 221.53125 328.789063 C 221.027344 327.171875 222.679688 326.105469 224.140625 325.648438 C 226.988281 324.757813 233.320313 324.628906 234.707031 329.046875 L 237.683594 338.542969 "/>
<path style=" stroke:none;fill-rule:nonzero;fill:rgb(92.89856%,70.199585%,11.799622%);fill-opacity:1;" d="M 244.875 339.527344 L 244.449219 338.527344 L 246.335938 337.289063 L 236.914063 315.152344 C 236.398438 313.925781 235.535156 313.855469 234.199219 314.421875 L 233.773438 313.417969 L 238.574219 308.753906 L 250.042969 335.710938 L 252.238281 335.214844 L 252.660156 336.21875 L 244.875 339.527344 "/>
<path style=" stroke:none;fill-rule:nonzero;fill:rgb(92.89856%,70.199585%,11.799622%);fill-opacity:1;" d="M 256.488281 334.394531 L 255.988281 333.429688 L 257.773438 332.050781 L 246.714844 310.6875 C 246.105469 309.503906 245.238281 309.5 243.949219 310.167969 L 243.453125 309.199219 L 247.886719 304.183594 L 261.347656 330.195313 L 263.5 329.539063 L 264.003906 330.5 L 256.488281 334.394531 "/>
<path style=" stroke:none;fill-rule:nonzero;fill:rgb(92.89856%,70.199585%,11.799622%);fill-opacity:1;" d="M 265.753906 326.328125 C 265.101563 325.3125 265.429688 323.953125 266.414063 323.324219 C 268.042969 322.285156 269.496094 323.128906 270.367188 324.199219 C 271.152344 325.128906 271.761719 324.882813 272.574219 324.363281 C 274.34375 323.234375 275.09375 321.566406 273.96875 319.796875 C 271.542969 315.992188 263.953125 321.789063 260.789063 316.824219 C 258.554688 313.328125 261.328125 308.980469 264.183594 307.15625 C 265.644531 306.226563 267.402344 306.058594 268.269531 307.417969 C 269.007813 308.570313 268.535156 309.640625 267.589844 310.246094 C 266.054688 311.21875 264.589844 310.71875 263.273438 309.410156 C 261.921875 310.507813 261.351563 312.308594 262.257813 313.734375 C 264.449219 317.167969 271.972656 310.601563 275.828125 316.648438 C 278.0625 320.148438 276.359375 323.621094 273 325.769531 C 270.851563 327.136719 267.289063 328.742188 265.753906 326.328125 "/>
<path style=" stroke:none;fill-rule:nonzero;fill:rgb(32.199097%,17.298889%,49.798584%);fill-opacity:1;" d="M 158.476563 262.390625 L 158.476563 261.347656 L 161.195313 260.972656 L 161.195313 249.136719 C 161.195313 247.742188 160.324219 247.316406 159.101563 247.316406 C 158.878906 247.316406 158.679688 247.316406 158.53125 247.339844 L 158.53125 246.273438 L 164.785156 244.574219 L 164.785156 260.972656 L 167.253906 261.347656 L 167.253906 262.394531 L 158.476563 262.394531 "/>
<path style=" stroke:none;fill-rule:nonzero;fill:rgb(32.199097%,17.298889%,49.798584%);fill-opacity:1;" d="M 175.421875 251.824219 C 176.492188 251.027344 176.867188 249.90625 176.867188 248.515625 C 176.867188 247.191406 175.871094 245.769531 174.152344 245.769531 C 172.40625 245.769531 171.4375 246.792969 171.4375 248.410156 C 171.4375 249.535156 172.332031 250.277344 173.378906 250.804688 Z M 172.433594 254.46875 C 171.3125 255.09375 170.589844 256.113281 170.589844 257.808594 C 170.589844 259.824219 171.660156 261.570313 173.851563 261.570313 C 176.242188 261.570313 177.164063 260.402344 177.164063 258.757813 C 177.164063 257.3125 176.34375 256.660156 175.097656 255.96875 Z M 179.007813 248.835938 C 179.007813 250.332031 177.964844 251.730469 176.445313 252.351563 C 178.511719 253.546875 179.78125 254.84375 179.78125 257.359375 C 179.78125 260.925781 177.589844 262.765625 173.703125 262.765625 C 171.0625 262.765625 168.195313 261.445313 168.195313 258.40625 C 168.195313 256.1875 169.292969 254.84375 171.359375 253.847656 C 169.839844 252.875 168.816406 251.75 168.816406 249.710938 C 168.816406 246.644531 170.910156 244.582031 174.074219 244.582031 C 176.671875 244.578125 179.007813 245.996094 179.007813 248.835938 "/>
<path style=" stroke:none;fill-rule:nonzero;fill:rgb(32.199097%,17.298889%,49.798584%);fill-opacity:1;" d="M 192.367188 246.71875 C 190.867188 248.6875 187.929688 252.722656 187.929688 259.925781 C 187.929688 261.621094 187.578125 262.761719 185.960938 262.761719 C 184.441406 262.761719 183.570313 261.941406 183.570313 260.023438 C 183.570313 256.039063 187.753906 251.550781 189.972656 248.3125 L 184.988281 248.3125 C 182.871094 248.3125 182.246094 248.742188 181.425781 250.78125 L 180.402344 250.554688 L 181.621094 244.828125 C 182.175781 244.921875 182.722656 244.953125 183.296875 244.953125 L 192.367188 244.953125 L 192.367188 246.71875 "/>
<path style=" stroke:none;fill-rule:nonzero;fill:rgb(32.199097%,17.298889%,49.798584%);fill-opacity:1;" d="M 198.171875 261.570313 C 200.039063 261.570313 200.234375 259.5 200.234375 257.386719 C 200.234375 255.140625 200.011719 253.195313 198.171875 253.195313 C 196.203125 253.195313 195.878906 255.589844 195.878906 257.386719 C 195.878906 259.703125 196.148438 261.570313 198.171875 261.570313 M 199.394531 244.574219 C 201.53125 244.574219 203.300781 245.621094 203.300781 247.394531 C 203.300781 248.289063 202.878906 249.261719 201.558594 249.261719 C 199.964844 249.261719 199.515625 247.867188 199.515625 246.472656 C 199.515625 246.273438 199.515625 246.070313 199.542969 245.871094 C 199.394531 245.796875 199.140625 245.769531 198.914063 245.769531 C 196.425781 245.769531 195.851563 250.15625 195.878906 253.222656 L 195.851563 253.222656 L 195.90625 253.222656 C 196.675781 252.074219 198.015625 251.253906 199.140625 251.253906 C 202.40625 251.253906 204.027344 253.722656 204.027344 256.585938 C 204.027344 260.054688 201.933594 262.765625 198.070313 262.765625 C 193.8125 262.765625 192.089844 258.953125 192.089844 254.820313 C 192.089844 250.183594 193.984375 244.574219 199.394531 244.574219 "/>
<path style=" stroke:none;fill-rule:nonzero;fill:rgb(92.89856%,70.199585%,11.799622%);fill-opacity:1;" d="M 155.890625 169.203125 L 153.984375 167.730469 L 154.585938 166.796875 L 161.859375 171.453125 L 161.261719 172.386719 L 159.121094 171.273438 L 148.902344 187.242188 C 149.589844 187.792969 150.300781 188.320313 151.007813 188.777344 C 155.554688 191.683594 158.710938 191.878906 162.335938 189.554688 L 163.328125 190.371094 L 157.976563 195.097656 C 156.847656 193.902344 155.832031 193.183594 154.015625 192.015625 L 142.964844 184.941406 L 143.5625 184.011719 L 145.703125 185.121094 L 155.890625 169.203125 "/>
<path style=" stroke:none;fill-rule:nonzero;fill:rgb(92.89856%,70.199585%,11.799622%);fill-opacity:1;" d="M 174.019531 180.8125 L 172.113281 179.335938 L 172.710938 178.402344 L 179.988281 183.058594 L 179.386719 183.992188 L 177.25 182.882813 L 169.640625 194.78125 C 167.761719 197.710938 168.28125 200.230469 171.785156 202.476563 C 174.679688 204.332031 177.648438 204.371094 179.675781 201.207031 L 185.699219 191.796875 C 186.726563 190.1875 186.871094 188.777344 184.613281 187.332031 L 185.207031 186.402344 L 192.015625 190.757813 L 191.414063 191.695313 C 189.011719 190.335938 188.242188 191.085938 187.210938 192.691406 L 181.089844 202.261719 C 178.902344 205.683594 174.890625 205.929688 170.242188 202.953125 C 165.894531 200.171875 164.011719 196.445313 166.335938 192.816406 L 174.019531 180.8125 "/>
<path style=" stroke:none;fill-rule:nonzero;fill:rgb(92.89856%,70.199585%,11.799622%);fill-opacity:1;" d="M 196.203125 217.453125 L 195.5625 207.105469 L 188.855469 209.71875 C 188.171875 209.976563 187.738281 210.28125 187.589844 210.515625 C 186.972656 211.472656 187.769531 212.3125 189.078125 213.15625 L 188.480469 214.089844 L 181.242188 209.449219 L 181.839844 208.519531 C 183.640625 209.632813 185.652344 209.386719 187.171875 208.789063 L 195.316406 205.5625 L 194.398438 193.863281 L 192.496094 192.386719 L 193.09375 191.453125 L 200.640625 196.28125 L 200.046875 197.21875 L 198.003906 196.171875 L 198.703125 205.09375 L 202.246094 203.710938 C 203.953125 203.050781 205.011719 202.882813 205.507813 202.101563 C 206.109375 201.171875 204.792969 200.257813 204.019531 199.761719 L 204.613281 198.824219 L 211.652344 203.335938 L 211.058594 204.265625 C 209.222656 203.347656 207.78125 203.230469 206.542969 203.679688 L 198.882813 206.523438 L 199.941406 219.851563 L 201.574219 221.152344 L 200.980469 222.089844 L 193.398438 217.230469 L 193.996094 216.300781 L 196.203125 217.453125 "/>
</g>
</svg>
